<?xml version="1.0" standalone="no"?>
<!DOCTYPE svg PUBLIC "-//W3C//DTD SVG 20010904//EN"
 "http://www.w3.org/TR/2001/REC-SVG-20010904/DTD/svg10.dtd">
<svg version="1.0" xmlns="http://www.w3.org/2000/svg"
 width="1648.000000pt" height="1648.000000pt" viewBox="0 0 1648.000000 1648.000000"
 preserveAspectRatio="xMidYMid meet">
<metadata>
Created by potrace 1.11, written by Peter Selinger 2001-2013
</metadata>
<g transform="translate(0.000000,1648.000000) scale(0.100000,-0.100000)"
fill="#000000" stroke="none">
<path d="M4026 12823 c-3 -4 -113 -7 -242 -8 l-236 -1 -31 -36 c-86 -95 -81
-82 -63 -183 2 -11 9 -47 14 -80 6 -33 14 -73 17 -90 3 -16 12 -64 20 -105 8
-41 17 -86 20 -100 2 -13 7 -42 11 -64 3 -22 7 -43 9 -46 2 -3 6 -21 9 -40 3
-19 8 -46 11 -60 3 -14 7 -41 10 -60 2 -19 9 -60 16 -90 6 -30 13 -66 15 -80
3 -27 11 -62 18 -88 3 -9 7 -35 11 -57 11 -74 15 -100 25 -145 5 -25 12 -58
15 -75 3 -16 12 -66 20 -110 8 -44 15 -83 15 -86 0 -3 -12 -4 -27 -2 -80 14
-347 6 -458 -12 -206 -35 -412 -116 -543 -216 -29 -21 -52 -35 -52 -31 0 4 -4
2 -8 -4 -4 -6 -36 -35 -72 -66 -70 -59 -104 -91 -163 -157 -24 -26 -39 -37
-42 -29 -75 204 -135 353 -143 356 -5 1 -12 -9 -16 -23 -4 -14 -11 -25 -16
-25 -6 0 -10 -4 -10 -9 0 -5 -19 -42 -41 -81 l-42 -72 -69 73 c-183 194 -278
290 -278 281 0 -5 9 -52 19 -103 11 -52 22 -111 25 -131 3 -21 10 -58 16 -83
6 -25 12 -60 15 -78 2 -17 11 -66 20 -107 9 -41 18 -88 20 -105 5 -31 10 -59
20 -106 5 -23 3 -26 -19 -26 -36 0 -193 -17 -206 -23 -3 -1 -20 -4 -39 -7 -28
-4 -189 -44 -226 -56 -5 -2 -30 -9 -55 -16 -25 -7 -49 -16 -55 -21 -5 -4 -28
-13 -50 -20 -53 -17 -217 -97 -282 -137 -29 -18 -56 -33 -62 -33 -5 0 -11 -3
-13 -7 -1 -5 -23 -21 -47 -37 -25 -16 -50 -33 -55 -38 -174 -142 -282 -264
-394 -446 -60 -97 -199 -416 -217 -496 -1 -6 -5 -18 -8 -26 -9 -24 -27 -86
-31 -106 -2 -10 -11 -46 -20 -79 -8 -33 -18 -75 -21 -94 -3 -19 -7 -37 -9 -40
-4 -6 -9 -35 -22 -118 -3 -21 -7 -49 -10 -63 -18 -96 -25 -530 -10 -660 17
-157 16 -151 31 -225 3 -16 10 -55 16 -85 16 -86 18 -88 40 -51 11 18 18 36
15 38 -3 3 3 18 12 32 10 14 31 55 47 91 58 133 155 330 163 330 4 0 21 -27
39 -60 58 -110 78 -145 84 -150 4 -3 9 -15 13 -27 9 -30 24 -30 22 0 -1 12 2
27 6 34 5 6 5 14 -2 18 -6 3 -8 10 -6 14 3 4 7 58 11 121 5 110 8 153 20 285
17 184 45 409 55 435 1 3 3 10 4 15 3 19 18 100 22 115 7 36 44 158 55 185 7
17 13 35 15 42 1 7 18 46 38 88 20 42 36 77 36 79 0 20 197 337 224 361 6 6
24 27 40 49 33 44 156 168 206 209 100 79 188 124 298 152 86 22 101 25 152
25 84 1 119 -10 154 -49 18 -20 18 -21 -5 -68 -12 -26 -25 -50 -28 -53 -4 -3
-26 -32 -50 -65 -25 -33 -92 -107 -149 -165 -93 -93 -180 -190 -250 -277 -107
-132 -276 -424 -316 -548 -9 -27 -19 -57 -23 -65 -8 -20 -7 -13 -27 -102 -19
-83 -25 -205 -12 -276 14 -80 69 -210 107 -250 10 -12 19 -25 19 -30 0 -13
114 -116 147 -133 16 -8 30 -16 33 -20 6 -6 59 -30 105 -47 81 -31 221 -34
320 -8 33 9 68 18 77 20 79 20 176 48 191 57 10 5 22 7 28 3 5 -3 15 -1 22 4
7 5 30 13 52 17 22 4 44 10 50 13 5 4 17 7 25 7 8 0 20 3 25 6 10 6 101 29
120 30 6 1 19 5 30 11 14 6 13 3 -5 -11 -14 -12 -30 -25 -37 -31 -7 -5 -15
-10 -18 -10 -13 0 -143 -124 -190 -181 -50 -60 -156 -240 -170 -289 -1 -3 -5
-18 -10 -35 -4 -16 -10 -34 -14 -40 -3 -5 -6 -14 -7 -20 -1 -5 -7 -39 -14 -75
-24 -128 -28 -204 -36 -566 -5 -241 -9 -349 -14 -349 -1 0 -4 -16 -6 -35 -3
-19 -8 -42 -11 -50 -3 -8 -8 -23 -9 -33 -16 -79 -128 -199 -234 -249 -56 -27
-77 -31 -151 -32 -59 0 -92 4 -103 13 -9 7 -16 11 -16 7 0 -17 -105 62 -147
111 -26 32 -62 73 -79 92 -51 60 -174 230 -174 241 0 5 -4 10 -10 10 -5 0 -10
6 -10 13 0 8 -9 22 -20 32 -11 10 -20 24 -20 30 0 7 -7 18 -15 25 -9 7 -13 15
-10 18 3 3 -1 12 -9 21 -18 21 -91 164 -88 174 1 4 -2 7 -6 7 -5 0 -15 18 -22
40 -7 22 -15 38 -17 36 -6 -5 -12 -45 -18 -105 -3 -30 -7 -57 -9 -60 -2 -3 -7
-31 -10 -62 -7 -63 -14 -100 -18 -105 -2 -1 -17 9 -34 24 -18 15 -49 41 -70
57 -21 17 -47 39 -58 50 -12 11 -30 27 -42 35 -21 15 -126 104 -149 127 -7 7
-15 10 -18 7 -5 -6 0 -23 24 -79 5 -11 15 -41 24 -66 8 -25 22 -64 32 -85 9
-21 17 -41 18 -44 6 -21 73 -175 119 -273 20 -42 36 -81 36 -86 0 -5 3 -11 8
-13 4 -1 21 -30 38 -63 50 -96 84 -155 133 -229 25 -38 51 -77 56 -85 6 -9 12
-18 15 -21 3 -3 17 -21 32 -40 97 -129 217 -216 370 -269 88 -30 102 -32 248
-35 111 -2 136 0 220 24 145 42 221 83 309 170 86 84 154 170 210 263 43 72
110 218 108 237 0 3 5 14 11 26 6 11 13 32 16 45 2 13 9 44 14 69 15 65 23
133 27 230 6 115 16 268 19 288 2 9 7 44 11 77 20 169 66 315 129 408 43 66
75 93 144 125 45 20 65 24 116 20 35 -3 73 -11 87 -19 13 -7 27 -12 30 -12 4
1 36 -26 71 -60 59 -56 96 -104 186 -237 48 -72 192 -366 192 -393 0 -7 -10
-23 -23 -37 -27 -29 -111 -166 -120 -195 -22 -74 -38 -135 -44 -165 -15 -71
-7 -340 10 -367 4 -6 9 -25 11 -44 5 -32 7 -45 21 -99 9 -36 14 -54 50 -175
60 -203 72 -274 71 -416 -1 -117 -3 -130 -22 -150 -12 -12 -37 -23 -55 -25
-18 -2 -34 -6 -37 -8 -6 -6 -90 31 -123 55 -16 11 -29 17 -29 12 0 -4 -4 -3
-8 2 -17 24 -277 177 -297 175 -3 0 -21 6 -40 14 -44 19 -126 34 -160 31 -107
-12 -164 -32 -245 -84 -52 -33 -158 -133 -225 -211 -94 -110 -164 -190 -197
-225 -62 -66 -77 -68 240 38 105 36 192 62 192 59 0 -4 4 -2 8 3 4 6 24 16 45
22 l39 12 -7 -47 c-4 -26 -8 -63 -10 -82 -1 -19 -4 -35 -5 -35 -1 0 -3 -13 -5
-30 -1 -16 -6 -54 -10 -83 l-8 -54 43 39 c24 21 51 46 62 55 10 10 22 18 27
18 5 0 14 6 20 14 15 18 106 61 151 72 57 13 108 6 158 -21 47 -26 67 -42 212
-176 41 -39 87 -81 102 -94 15 -14 31 -25 36 -25 5 0 15 -7 22 -15 7 -9 43
-30 79 -48 54 -26 80 -32 143 -34 97 -2 145 16 207 77 55 56 60 63 87 120 35
72 65 169 78 245 3 17 8 46 12 65 27 148 36 494 20 755 -13 206 -14 230 -4
242 5 7 5 14 -1 17 -6 4 -7 15 -2 29 5 12 9 27 9 32 2 37 28 97 51 119 71 68
182 41 285 -67 43 -46 56 -55 51 -37 -12 36 -9 158 4 205 20 72 25 74 73 24
46 -46 96 -79 121 -79 9 0 19 -5 23 -11 13 -22 -45 -101 -85 -114 -35 -11 -34
-76 2 -92 19 -8 81 -10 97 -3 3 1 14 3 25 4 17 1 20 7 17 40 -2 22 -10 55 -17
73 -8 18 -11 33 -7 34 4 0 39 2 77 4 39 2 87 5 107 8 47 7 54 -4 24 -34 -37
-39 -58 -76 -47 -84 14 -8 46 -15 91 -20 79 -8 125 -18 132 -29 3 -6 23 -28
42 -50 33 -36 40 -49 37 -68 0 -5 3 -8 9 -8 9 0 41 -30 87 -83 11 -14 29 -30
39 -35 18 -10 18 -11 2 -29 -10 -10 -24 -35 -33 -56 -17 -40 -22 -42 -74 -23
-32 11 -34 15 -34 57 0 64 -17 90 -112 164 -71 56 -90 66 -111 61 -23 -6 -26
-11 -20 -38 3 -18 10 -34 14 -38 13 -8 24 -42 11 -35 -15 10 -76 -60 -84 -95
-4 -16 -13 -30 -21 -30 -8 0 -14 -4 -14 -10 0 -15 40 -12 42 3 0 6 2 17 2 23
2 14 67 74 81 74 6 0 16 -9 22 -19 14 -22 43 -21 71 1 13 10 12 6 -3 -17 -44
-69 -60 -125 -35 -125 6 0 9 3 8 8 0 4 2 14 5 22 3 8 7 24 9 34 2 11 11 20 21
22 13 2 17 -5 19 -29 3 -51 2 -60 -5 -95 l-7 -34 42 31 c46 34 79 39 99 15 11
-13 9 -14 -17 -9 l-29 6 24 -20 c13 -12 31 -22 40 -22 9 -1 34 -2 56 -3 22 -1
45 -5 52 -9 24 -15 213 -34 268 -27 25 4 60 -1 92 -11 45 -15 125 -29 188 -33
28 -2 166 38 165 48 -1 4 7 14 17 21 15 11 19 9 31 -16 15 -31 39 -37 73 -18
21 11 17 32 -4 23 -8 -3 -12 6 -12 26 0 18 5 30 13 30 7 0 11 -4 8 -9 -3 -5 1
-11 9 -15 9 -3 15 0 15 9 0 17 17 20 22 4 7 -20 98 28 98 52 0 4 -15 3 -32 -2
-18 -5 -57 -9 -86 -9 -52 0 -52 1 -41 23 7 12 15 24 18 27 12 10 59 115 67
150 4 19 9 38 10 43 1 4 2 17 3 30 1 23 2 23 159 24 123 0 163 4 187 16 22 12
31 13 36 5 4 -7 5 -16 3 -20 -8 -13 2 -9 40 13 20 12 36 19 37 17 0 -1 2 -10
4 -18 1 -8 12 -31 24 -51 l21 -36 44 22 c48 24 107 64 117 78 4 5 9 4 13 -2 4
-6 2 -11 -3 -11 -6 0 -11 -4 -11 -9 0 -11 18 -9 45 6 11 6 23 11 28 11 7 0 23
3 119 18 32 5 59 -29 39 -49 -18 -18 -13 -25 14 -19 29 5 29 5 11 65 -13 44
-13 47 5 48 80 4 78 5 64 -41 -7 -22 -6 -23 9 -11 9 7 16 10 16 5 1 -5 8 7 16
26 l15 35 18 -24 c18 -23 20 -24 36 -8 29 29 38 19 16 -19 -26 -43 -27 -66 -3
-87 17 -15 20 -14 55 19 l37 36 -23 18 c-17 15 -19 21 -10 31 9 9 17 8 37 -5
15 -9 27 -21 27 -26 1 -6 2 -16 3 -22 1 -7 -1 -26 -6 -41 l-7 -29 27 18 c15 9
36 23 48 31 11 7 32 14 47 15 21 2 26 6 21 20 -9 28 21 22 34 -7 7 -14 12 -46
12 -70 0 -33 4 -45 14 -45 8 0 18 5 21 10 5 8 11 8 20 0 16 -13 30 4 18 23
-24 39 5 78 52 69 22 -4 24 -8 20 -35 -3 -17 -8 -34 -11 -39 -3 -4 0 -9 5 -9
6 -1 17 -2 24 -3 6 -1 22 1 35 6 20 7 22 5 16 -18 -6 -24 -4 -25 22 -21 16 3
58 16 93 31 35 14 66 24 68 22 2 -2 6 -17 7 -32 2 -16 4 -32 5 -36 0 -5 14 -8
31 -8 23 0 31 -5 36 -25 5 -21 11 -25 33 -21 79 13 120 50 121 109 0 20 5 37
11 37 5 0 8 4 4 9 -8 14 24 41 41 34 10 -4 17 2 21 16 3 12 13 21 24 21 20 0
28 10 34 41 6 30 8 31 39 19 43 -16 84 -12 107 11 l20 20 30 -32 c35 -38 45
-32 48 31 1 20 58 -40 71 -76 14 -36 2 -42 -63 -37 -197 16 -236 3 -237 -78 0
-47 5 -51 49 -34 70 28 192 41 231 25 14 -5 48 -11 75 -14 104 -9 152 -29 198
-81 17 -20 18 -20 15 0 -2 14 2 19 12 16 28 -6 129 -9 149 -4 28 7 35 34 13
55 -20 21 -29 23 -127 33 -38 4 -78 11 -88 17 -10 5 -28 11 -40 13 -23 5 -57
34 -42 36 41 6 74 8 170 9 107 3 165 -8 165 -30 0 -7 6 -8 19 -1 10 6 21 8 23
5 12 -11 145 -3 167 11 4 2 26 6 51 10 25 4 48 9 52 11 4 2 42 7 85 10 65 4
83 2 109 -14 l30 -19 0 -103 c-1 -92 -3 -103 -19 -106 -28 -4 -33 -13 -19 -32
26 -36 43 -85 54 -157 10 -67 24 -86 32 -44 8 41 16 112 20 174 3 39 7 78 9
87 5 27 46 78 62 78 8 0 15 4 15 8 0 5 6 9 13 9 21 0 160 46 202 66 79 39 203
31 206 -14 1 -11 3 -23 4 -29 1 -5 3 -14 4 -20 1 -6 10 -6 27 0 14 6 48 8 76
6 29 -3 63 1 83 10 42 17 63 10 71 -25 3 -14 7 -31 9 -37 3 -9 -11 -8 -48 2
l-51 13 44 -37 c24 -20 58 -51 75 -67 18 -17 48 -43 68 -58 32 -25 37 -26 39
-10 0 10 3 29 4 43 10 73 11 214 3 244 -13 46 -42 77 -81 83 -18 4 -124 6
-235 6 -112 0 -203 3 -203 7 0 3 12 10 27 16 20 7 -5 9 -95 10 -169 1 -194 21
-168 130 l7 31 -93 -2 c-51 -1 -103 -7 -114 -13 -30 -16 -39 -53 -43 -172 l-1
-35 -122 -1 c-114 -1 -236 -10 -265 -19 -8 -3 -13 5 -13 20 l0 24 -47 -21
c-49 -21 -79 -23 -233 -15 -64 3 -107 1 -133 -8 -36 -12 -37 -12 -31 7 8 26
-13 40 -39 26 -15 -7 -22 -7 -28 3 -5 8 -4 15 1 17 6 2 8 7 6 11 -2 3 29 5 71
4 72 -2 136 15 155 41 3 5 8 -3 10 -19 2 -19 9 -29 22 -31 33 -5 72 7 100 29
l27 22 -20 22 c-25 27 -25 27 -5 47 20 20 4 20 -51 1 -45 -16 -55 -13 -33 12
36 40 23 92 -29 118 -30 15 -61 20 -143 21 -59 0 -131 8 -165 16 -63 17 -200
31 -400 41 -28 2 -55 6 -62 10 -6 4 -14 3 -18 -3 -4 -6 -11 -8 -16 -5 -8 6
-71 9 -394 20 -227 8 -920 18 -1277 19 -244 1 -358 4 -358 12 0 14 57 66 101
92 61 36 161 65 268 78 30 3 62 8 70 9 9 2 27 4 40 4 20 1 11 9 -42 41 l-66
40 -390 0 c-365 0 -391 -1 -392 -17 -1 -10 -3 -29 -5 -43 -6 -41 -5 -122 1
-167 4 -36 2 -43 -12 -44 -10 -1 -128 -1 -263 -1 l-245 -1 -73 94 c-40 52 -78
101 -85 109 -7 8 -20 27 -30 42 l-17 28 -163 2 -162 3 -1 185 c-1 102 -2 192
-3 201 -1 15 -96 65 -140 74 -11 2 -25 6 -29 9 -16 9 -100 20 -170 20 l-72 1
-22 65 c-12 36 -23 68 -24 73 -1 4 -3 9 -4 12 -1 3 -3 8 -5 13 -1 4 -4 14 -7
22 -27 71 -59 175 -73 235 -1 6 -5 17 -8 25 -14 37 -27 162 -23 230 8 128 63
216 164 263 58 27 146 33 207 14 28 -8 34 -15 39 -51 4 -22 8 -50 11 -61 2
-11 6 -38 10 -60 6 -40 11 -63 20 -110 3 -14 7 -35 9 -47 7 -40 16 -92 26
-143 5 -27 12 -61 14 -75 3 -14 7 -36 10 -50 9 -47 16 -85 21 -120 3 -19 8
-46 11 -60 3 -14 8 -36 10 -50 3 -14 9 -47 14 -75 5 -27 12 -65 15 -84 3 -19
7 -37 9 -40 2 -3 7 -30 11 -58 3 -29 10 -65 14 -80 4 -16 7 -36 5 -45 -1 -10
1 -18 5 -18 4 0 7 -10 8 -22 4 -54 26 -158 33 -163 5 -3 314 -8 687 -11 373
-3 780 -6 905 -7 l226 -2 7 54 c4 29 9 64 11 77 2 13 6 35 8 48 2 13 7 48 11
78 6 45 12 58 33 71 15 8 36 23 47 31 11 9 31 24 45 35 l25 19 -65 -1 c-51 -2
-64 1 -62 12 4 16 11 73 16 116 2 17 5 30 6 30 1 0 3 16 5 35 1 19 5 49 8 65
3 17 8 52 12 78 4 27 8 57 10 66 3 16 7 49 22 161 8 68 11 85 13 85 1 0 3 11
4 25 9 87 18 136 26 144 6 6 10 6 11 1 1 -12 6 -44 20 -115 6 -30 12 -64 13
-75 4 -22 34 -188 40 -220 18 -93 46 -247 51 -280 3 -22 8 -47 10 -55 3 -8 7
-29 9 -45 2 -17 12 -70 21 -120 9 -49 18 -101 21 -115 2 -14 9 -50 14 -80 6
-30 12 -68 15 -84 2 -15 7 -31 10 -34 8 -8 240 -14 378 -10 44 2 81 0 83 -4 3
-4 14 -4 27 -2 12 3 27 5 32 5 70 -4 96 -4 100 1 3 3 22 2 43 -1 20 -3 294 -6
607 -6 l570 0 2 25 c2 23 8 57 13 70 1 3 2 8 1 13 -1 4 3 26 8 50 10 41 16 74
26 140 3 17 8 46 12 62 3 17 7 39 9 50 1 11 5 36 9 55 3 19 8 49 11 65 3 17
14 80 24 140 11 61 22 124 25 140 2 17 7 40 9 51 2 12 7 37 10 55 3 19 8 45
10 59 3 14 15 81 26 149 12 69 23 127 25 130 1 3 6 31 10 61 4 30 8 58 10 61
2 3 7 27 10 55 8 57 12 80 20 114 3 14 7 39 10 55 2 17 7 44 10 60 18 95 37
203 40 225 2 14 6 39 9 55 3 17 8 47 11 69 4 21 9 48 11 60 2 11 8 46 14 76 6
30 12 65 14 76 2 12 7 39 10 60 4 22 15 86 25 144 29 160 33 183 36 205 2 11
6 34 9 50 3 17 13 68 21 115 8 47 17 95 19 107 3 11 8 43 12 70 3 26 8 57 11
68 2 11 6 29 7 40 2 11 8 47 15 80 6 33 13 78 17 100 7 44 8 47 17 90 4 17 9
46 12 65 2 19 7 51 11 70 4 19 7 45 8 58 0 12 3 22 6 22 3 0 6 8 6 18 1 15 6
53 19 127 2 11 9 47 15 80 7 33 13 71 15 85 1 14 5 32 8 40 3 8 6 22 6 30 0
17 6 56 15 97 3 15 8 44 11 63 3 19 8 46 10 60 3 14 8 36 10 50 3 14 8 41 11
60 7 49 13 81 18 106 8 39 18 99 21 124 2 14 4 25 5 25 1 0 3 11 5 25 1 14 7
50 13 80 6 30 14 75 17 100 4 24 8 47 11 51 2 4 6 31 10 60 3 30 8 57 11 61 2
4 6 24 8 45 5 39 11 79 20 123 3 14 8 39 11 55 27 150 45 254 49 275 2 14 8
52 14 85 6 33 12 71 15 85 5 29 42 239 52 290 3 19 8 49 9 65 2 17 4 35 6 40
1 6 -16 30 -39 54 l-42 44 -120 1 c-66 1 -120 -1 -120 -4 0 -3 -28 -5 -63 -6
-34 -1 -109 -4 -167 -8 -58 -3 -136 -8 -175 -11 -85 -5 -235 -14 -330 -21 -38
-2 -112 -6 -163 -8 -52 -3 -96 -7 -99 -10 -3 -2 -16 -1 -29 4 -13 5 -25 6 -28
1 -3 -4 -22 -6 -43 -3 -21 2 -44 3 -50 3 -7 -1 -42 -2 -78 -2 -36 -1 -65 -3
-65 -4 0 -1 -4 -24 -9 -51 -5 -27 -12 -74 -16 -104 -3 -30 -8 -66 -10 -80 -8
-53 -22 -164 -30 -245 -2 -16 -6 -46 -9 -65 -3 -19 -8 -64 -11 -100 -3 -36 -7
-78 -10 -95 -3 -16 -7 -50 -10 -75 -2 -25 -7 -63 -10 -85 -6 -47 -13 -108 -20
-185 -3 -30 -7 -75 -10 -100 -3 -25 -7 -70 -10 -100 -3 -30 -7 -71 -10 -90 -8
-61 -15 -124 -19 -170 -2 -25 -7 -65 -10 -90 -8 -64 -15 -125 -21 -200 -6 -69
-13 -125 -15 -125 -1 0 -3 -22 -5 -50 -5 -67 -13 -152 -19 -195 -2 -19 -7 -64
-10 -100 -4 -36 -9 -87 -12 -115 -3 -27 -7 -66 -9 -85 -12 -101 -16 -141 -21
-200 -5 -59 -10 -107 -13 -120 -1 -3 -5 0 -9 7 -10 16 -4 202 13 423 10 120
38 371 51 455 14 91 28 219 25 230 -4 16 -10 70 -11 101 -1 59 9 260 16 304 3
25 7 60 8 77 0 18 3 33 6 33 3 0 5 19 4 43 0 23 2 46 5 51 2 5 5 25 7 45 6 68
14 146 18 176 2 17 7 57 11 90 4 33 8 74 10 90 8 62 17 151 19 179 1 23 -3 29
-21 31 -12 1 -20 -1 -18 -5 2 -4 -2 -15 -9 -26 -12 -16 -13 -14 -11 21 2 22 6
54 9 70 3 17 8 46 11 65 2 19 10 63 16 98 12 67 6 88 -24 76 -12 -4 -17 -19
-18 -48 -1 -50 -6 -121 -14 -201 -3 -33 -7 -87 -8 -120 -2 -51 0 -60 15 -57
23 4 12 -35 -11 -41 -27 -7 -33 -45 -10 -68 24 -24 24 -39 1 -39 -16 0 -18
-12 -17 -147 1 -87 -4 -175 -12 -217 -8 -39 -16 -82 -18 -96 -12 -72 -17 -97
-21 -120 -3 -14 -7 -41 -9 -60 -2 -19 -6 -55 -10 -80 -4 -25 -8 -58 -10 -75
-2 -16 -6 -50 -10 -75 -16 -129 -24 -208 -30 -333 -3 -49 -7 -93 -11 -99 -4
-6 1 -8 12 -6 14 2 20 13 22 41 2 20 7 35 12 32 8 -5 5 -82 -5 -135 -7 -34
-19 -138 -19 -172 -1 -16 -4 -28 -7 -28 -4 0 -7 -6 -6 -12 1 -34 -4 -58 -12
-58 -11 0 -9 170 3 189 7 10 6 12 -4 6 -8 -5 -11 -4 -7 2 10 16 18 73 10 72
-20 -3 -29 2 -29 19 -1 15 -6 74 -19 202 -2 19 -6 64 -10 100 -3 36 -8 81 -10
100 -3 19 -7 64 -10 100 -6 74 -12 141 -30 305 -4 33 -8 80 -10 105 -2 25 -6
65 -9 90 -3 25 -8 74 -11 110 -3 36 -8 83 -10 105 -2 22 -7 65 -10 95 -3 30
-8 87 -12 125 -3 39 -7 89 -7 112 -1 24 -4 43 -7 43 -4 0 -7 10 -7 23 -1 80
-11 260 -17 302 -14 98 -80 236 -145 302 -26 27 -36 31 -51 23 -14 -8 -27 -6
-51 6 -26 13 -58 17 -143 16 -96 -1 -240 -8 -240 -12 0 -1 -34 -4 -75 -7 -150
-13 -440 -6 -524 12 -52 11 -103 17 -131 16 -16 -1 -90 -3 -163 -5 -124 -4
-135 -6 -171 -30 -21 -15 -49 -39 -64 -54 -30 -31 -52 -82 -36 -82 10 0 7 -59
-8 -145 -3 -16 -7 -48 -9 -70 -2 -22 -6 -53 -8 -70 -3 -16 -8 -52 -11 -80 -4
-27 -8 -61 -10 -75 -2 -14 -6 -47 -10 -75 -3 -27 -8 -61 -10 -75 -2 -14 -7
-45 -9 -70 -3 -25 -8 -63 -12 -85 -3 -22 -7 -56 -9 -75 -2 -19 -4 -35 -5 -35
-1 0 -3 -13 -4 -30 -2 -16 -7 -52 -10 -80 -4 -27 -9 -66 -12 -85 -2 -19 -7
-51 -10 -70 -12 -84 -13 -129 -4 -135 16 -10 -12 -185 -49 -314 -6 -19 -8 -38
-5 -43 3 -4 0 -25 -7 -46 -7 -20 -13 -46 -15 -57 -1 -11 -5 -38 -8 -60 -3 -22
-8 -83 -12 -135 -3 -52 -7 -105 -8 -117 -5 -61 -38 -21 -42 50 -1 29 -5 77 -9
107 -3 30 -8 71 -10 90 -2 19 -6 58 -10 85 -6 49 -9 76 -20 180 -3 27 -8 68
-11 90 -3 22 -7 65 -8 97 -2 31 -6 60 -8 65 -3 4 -5 26 -6 48 0 22 -3 56 -6
75 -3 19 -9 62 -12 95 -6 66 -11 100 -13 100 -1 0 -3 31 -6 68 -2 38 -6 85 -9
105 -7 44 -17 134 -21 182 -2 19 -6 60 -10 90 -4 30 -8 78 -11 105 -2 28 -6
64 -8 80 -6 35 -15 116 -21 195 -6 89 -25 192 -38 210 -28 39 -66 80 -75 80
-5 0 -14 6 -20 13 -8 9 -28 11 -69 7 -32 -3 -82 -5 -110 -5 -29 0 -53 -3 -53
-6 0 -9 -35 -4 -104 15 -45 11 -63 12 -74 4 -10 -9 -15 -9 -21 0 -5 8 -32 10
-86 7 -44 -3 -127 -7 -185 -11 -58 -3 -140 -7 -182 -7 -43 -1 -78 -5 -78 -9 0
-4 -7 -5 -15 -2 -8 4 -13 10 -10 14 9 14 -36 26 -49 13z m5337 -284 c14 -6 31
-22 38 -36 13 -23 11 -27 -22 -58 -32 -29 -36 -37 -32 -71 8 -66 5 -78 -24
-99 -15 -11 -30 -19 -33 -18 -3 0 -20 -5 -39 -13 -78 -33 -111 -5 -82 70 8 23
18 43 21 46 20 17 69 89 75 110 7 20 59 80 71 80 1 0 14 -5 27 -11z m-268
-980 c6 -3 26 -6 45 -8 22 -1 42 -10 52 -24 33 -41 73 -77 86 -77 22 0 13 -24
-18 -49 -17 -13 -58 -37 -93 -53 -34 -16 -64 -32 -67 -36 -19 -26 -120 -73
-168 -79 -26 -3 -51 -9 -57 -13 -22 -16 -74 -18 -150 -4 -44 8 -87 18 -95 21
-8 3 -19 7 -23 7 -11 1 -77 67 -77 77 0 4 -12 10 -27 14 -15 3 -42 13 -60 20
-18 8 -36 14 -38 14 -3 0 -20 14 -38 31 -31 29 -31 31 -17 57 9 17 38 39 75
57 65 31 81 35 138 41 22 2 41 5 43 7 6 6 478 4 489 -3z m-867 -706 c2 -13 -2
-23 -8 -23 -14 0 -40 -25 -40 -38 0 -10 -45 -10 -55 0 -7 7 22 70 37 79 5 3
21 6 36 5 20 -1 28 -7 30 -23z m-4523 -37 c84 -11 81 -8 100 -109 10 -51 19
-101 20 -112 2 -11 12 -67 24 -125 43 -218 44 -231 29 -225 -18 6 -66 15 -113
20 -22 3 -51 7 -65 10 -40 9 -210 34 -270 40 -54 6 -69 6 -163 4 -27 -1 -51 2
-54 5 -3 3 -12 1 -20 -5 -7 -6 -13 -8 -13 -3 0 5 -51 9 -113 10 -221 2 -330
28 -341 82 -22 103 81 221 269 308 43 20 83 37 89 38 6 2 31 9 56 16 25 7 50
14 55 16 78 18 116 26 164 31 31 3 57 7 59 8 5 5 235 -3 287 -9z m5066 -272
c34 -33 35 -38 10 -85 l-19 -36 29 -26 c16 -14 29 -34 29 -45 0 -11 -21 -38
-47 -62 -27 -23 -57 -50 -69 -60 -35 -31 -71 -45 -87 -32 -10 9 -19 8 -35 -4
-27 -19 -57 -11 -78 21 -23 35 -3 90 42 117 29 17 33 24 27 46 -17 69 -8 109
35 151 58 57 114 62 163 15z m-5481 -528 c56 -10 176 -66 213 -100 16 -14 27
-26 25 -27 -2 -1 -14 -2 -28 -4 -83 -8 -269 -53 -343 -82 -76 -30 -225 -111
-282 -154 -31 -23 -59 -39 -63 -35 -4 4 -7 40 -7 80 1 154 105 269 285 314 76
19 119 21 200 8z m-1039 -495 c53 -26 77 -46 108 -89 21 -30 23 -65 4 -60 -13
4 -157 -34 -167 -43 -6 -5 -16 -9 -23 -9 -8 0 -25 -8 -40 -17 -14 -10 -32 -18
-40 -19 -8 -2 -22 -9 -31 -16 -10 -8 -45 -29 -79 -46 -63 -33 -132 -77 -195
-125 -19 -15 -38 -27 -42 -27 -7 0 -3 45 7 100 10 52 32 120 39 120 4 0 8 7 8
16 0 19 58 94 105 136 34 31 119 75 178 93 56 16 118 11 168 -14z m5876 -3
c11 7 119 6 153 -1 27 -6 70 -30 70 -39 0 -5 9 -18 20 -30 l20 -22 -24 -30
c-13 -17 -30 -31 -37 -31 -8 0 -23 -20 -35 -45 -32 -66 -54 -82 -121 -85 -32
-2 -62 0 -68 3 -5 4 -16 7 -23 8 -29 5 -63 37 -69 64 -3 17 -11 30 -17 30 -6
0 -28 14 -48 30 -30 25 -36 35 -32 58 3 15 12 34 20 43 22 24 163 62 174 47 3
-4 11 -4 17 0z m-4267 -210 c-12 -52 -44 -143 -52 -146 -5 -2 -8 -10 -8 -18 0
-15 -56 -110 -77 -132 -7 -7 -13 -18 -13 -23 0 -5 -46 -56 -102 -112 -113
-113 -236 -201 -374 -267 -93 -45 -276 -120 -307 -125 -9 -2 -22 -7 -27 -10
-5 -3 -18 -8 -27 -10 -10 -2 -43 -11 -73 -20 -30 -9 -66 -18 -80 -21 -14 -3
-32 -7 -41 -10 -9 -2 -32 -7 -50 -9 -19 -3 -60 -9 -91 -13 -62 -9 -228 -7
-293 3 -22 4 -48 7 -57 8 -10 1 -18 4 -18 7 0 3 -8 6 -18 7 -15 1 -84 31 -153
68 -37 19 -17 24 96 21 63 -2 115 0 115 3 0 3 17 6 38 6 40 0 132 12 154 20 7
2 27 7 43 10 101 19 135 29 263 71 219 72 526 213 644 295 14 11 28 19 31 19
11 0 208 139 227 160 3 3 24 21 48 39 46 36 111 100 170 168 20 24 38 43 38
43 1 0 -1 -15 -6 -32z m4466 -383 c3 -8 -4 -24 -15 -36 -12 -13 -21 -26 -21
-30 0 -8 -53 -23 -85 -23 -15 -1 -20 6 -20 24 -1 33 26 79 42 73 7 -3 13 2 13
10 0 8 6 17 13 20 16 6 67 -20 73 -38z m-4151 -207 c10 -61 15 -90 18 -113 2
-22 10 -22 -163 -9 -52 3 -110 7 -127 7 -41 2 -42 12 -2 29 17 7 81 39 143 70
61 31 114 57 117 58 4 0 10 -19 14 -42z m3852 -289 c30 -17 57 -38 60 -47 4
-9 -11 -30 -43 -59 -61 -54 -95 -73 -139 -77 -35 -4 -80 19 -70 35 4 5 8 18
11 29 2 11 6 30 9 42 8 38 31 53 60 40 23 -11 25 -10 25 12 0 32 10 56 22 56
6 0 35 -14 65 -31z m585 -216 c14 -17 28 -46 33 -69 2 -6 6 -25 10 -42 5 -25
1 -36 -23 -61 -27 -29 -54 -41 -50 -23 2 13 -14 42 -22 37 -13 -8 -51 42 -56
75 -3 18 1 46 11 66 13 29 21 34 49 34 19 0 39 -7 48 -17z m-429 -501 c4 -1 7
-13 7 -27 0 -14 5 -25 10 -25 6 0 10 -5 10 -10 0 -6 9 -20 20 -32 25 -27 26
-56 3 -65 -10 -4 -37 -28 -60 -54 -24 -25 -51 -49 -62 -52 -45 -11 -95 61 -83
119 4 16 27 57 52 91 43 59 55 65 103 55z m405 -435 c12 -11 22 -28 22 -36 -1
-20 -25 -53 -33 -45 -11 11 -39 -45 -32 -63 20 -47 5 -83 -48 -112 -52 -29
-115 -33 -130 -9 -15 23 9 91 51 142 19 22 43 60 54 83 34 73 66 84 116 40z
m-868 -182 c19 -23 -41 -91 -90 -100 -17 -3 -20 2 -20 34 0 39 14 65 40 74 28
10 58 7 70 -8z m-432 -1141 c-2 -15 -12 -32 -23 -38 -11 -6 -23 -14 -26 -18
-3 -5 -14 -1 -25 7 -19 15 -18 15 6 35 14 11 30 24 35 29 20 19 36 12 33 -15z
m1362 -124 c0 -5 -7 -10 -16 -10 -8 0 -12 5 -9 10 3 6 10 10 16 10 5 0 9 -4 9
-10z"/>
<path d="M11066 12743 c-4 -4 -109 -8 -234 -9 -208 -1 -383 -9 -472 -19 -19
-3 -118 -7 -219 -9 -100 -3 -186 -8 -190 -11 -3 -4 -7 -48 -8 -98 -1 -51 -2
-92 -3 -92 -1 0 -4 -233 -14 -1001 -1 -132 -6 -246 -10 -252 -4 -7 -2 -12 4
-12 7 0 8 -6 2 -17 -5 -9 -6 -29 -2 -44 5 -15 6 -30 3 -33 -3 -3 -7 -139 -8
-303 -2 -164 -6 -498 -10 -743 -4 -245 -8 -504 -9 -577 0 -72 -4 -135 -8 -139
-5 -4 -9 0 -9 9 -2 29 -4 35 -10 41 -3 3 -3 59 -1 123 6 147 7 485 2 536 -6
51 -19 47 -18 -5 0 -24 0 -86 0 -138 1 -94 1 -207 -1 -410 -1 -58 1 -145 3
-195 3 -49 7 -151 11 -225 11 -224 13 -264 14 -276 0 -6 34 -45 74 -86 210
-217 404 -417 597 -617 118 -123 265 -274 325 -336 61 -62 207 -213 325 -335
118 -123 251 -260 295 -305 44 -45 152 -156 240 -247 563 -582 587 -606 607
-603 37 8 179 141 253 238 56 74 140 227 149 273 2 10 9 31 14 45 6 15 8 30 5
33 -4 3 -1 6 4 6 6 0 10 8 9 18 -2 9 1 31 6 47 7 26 26 111 44 205 3 14 7 33
10 43 3 10 7 32 10 50 2 18 8 55 14 82 5 28 11 61 14 75 2 14 7 41 10 60 21
125 29 182 30 217 1 18 3 33 7 33 3 0 6 17 7 39 2 21 5 49 8 62 2 13 7 51 10
84 3 33 8 76 10 95 2 19 7 73 10 120 8 113 15 124 43 64 26 -54 50 -78 107
-104 40 -19 40 -20 42 -76 0 -31 3 -59 6 -61 3 -3 1 -16 -4 -29 -5 -13 -6 -24
-2 -24 4 0 8 -17 8 -37 1 -56 20 -308 29 -398 3 -22 7 -58 9 -80 3 -22 8 -62
11 -89 8 -71 31 -234 41 -286 2 -14 7 -41 10 -60 3 -19 7 -46 10 -60 2 -14 7
-41 10 -60 4 -19 7 -39 9 -45 1 -5 5 -28 10 -50 8 -44 44 -164 54 -180 3 -5 6
-13 7 -17 1 -5 3 -10 4 -13 1 -3 3 -8 5 -12 8 -29 115 -255 124 -263 11 -10
51 -69 51 -77 0 -7 17 -27 101 -119 90 -100 260 -206 344 -215 6 0 17 -5 25
-9 41 -22 233 -32 330 -17 73 10 214 53 273 83 26 13 47 20 47 16 0 -4 4 -2 8
3 4 6 27 23 52 37 25 15 56 37 70 50 14 13 39 34 55 46 61 47 187 176 196 201
6 15 13 21 17 14 11 -18 0 -450 -12 -472 -2 -3 -7 -33 -10 -66 -6 -56 -12 -93
-16 -105 -1 -3 -2 -8 -1 -12 0 -3 -6 -29 -15 -57 -46 -155 -239 -212 -398
-116 -69 41 -78 51 -96 95 -33 85 -70 157 -89 174 -19 18 -36 19 -169 17 -152
-3 -168 -3 -342 -17 -58 -4 -118 -8 -135 -9 -16 -1 -32 -3 -35 -5 -3 -1 -25
-4 -50 -5 -25 -1 -45 -4 -45 -5 0 -1 -61 -2 -135 -3 -74 -1 -140 -5 -146 -9
-14 -9 -8 -175 10 -253 2 -11 11 -54 20 -95 8 -41 20 -90 25 -107 5 -18 7 -33
4 -33 -3 0 -1 -6 5 -12 5 -7 13 -29 17 -48 7 -36 34 -101 45 -110 4 -3 21 -27
40 -55 55 -81 153 -196 226 -263 132 -121 334 -234 477 -268 51 -12 65 -15 97
-20 19 -3 49 -8 65 -11 17 -3 85 -7 152 -7 68 -1 123 -5 123 -9 0 -5 5 -5 11
-1 6 3 59 8 117 9 59 2 107 4 107 5 0 0 18 3 40 5 65 7 185 28 205 35 3 1 8 2
13 1 4 -1 23 5 42 13 19 8 35 13 35 10 0 -2 16 2 35 10 20 9 36 15 38 14 1 -1
18 4 38 11 106 35 295 159 392 257 28 30 55 54 60 54 8 0 12 4 -142 -154 -87
-90 -126 -122 -163 -137 -26 -10 -48 -15 -48 -11 0 4 -4 3 -8 -3 -21 -29 -57
-48 -94 -51 -24 -2 -61 -10 -84 -18 -42 -14 -172 -43 -234 -50 -19 -3 -35 -5
-35 -6 0 -2 -82 -10 -147 -14 -37 -2 -71 -7 -77 -10 -5 -4 -12 -2 -16 3 -3 7
-15 7 -29 1 -13 -5 -26 -7 -27 -6 -2 2 -62 7 -134 10 -119 6 -128 6 -110 -9
19 -15 19 -15 -10 -11 -16 2 -42 5 -56 5 -14 1 -36 11 -49 23 -13 12 -31 23
-39 24 -83 12 -174 39 -276 81 -62 26 -190 98 -213 120 -7 7 -17 13 -21 13 -5
0 -20 11 -35 25 -15 14 -38 27 -51 29 -14 3 -40 15 -58 28 -32 23 -96 88 -97
99 0 3 -9 17 -21 30 -35 40 -148 251 -174 324 -4 11 -9 33 -12 50 -7 39 -32
87 -54 103 -13 9 -17 23 -15 57 1 25 0 48 -3 50 -3 3 -6 19 -7 36 -1 17 -8 37
-15 45 -50 61 -13 -210 52 -372 37 -96 118 -244 132 -244 4 0 7 -6 7 -12 0
-38 198 -235 312 -310 83 -57 120 -69 134 -47 4 7 9 8 13 1 8 -12 176 -92 194
-92 7 0 18 -5 25 -12 7 -7 12 -9 12 -6 0 4 16 0 35 -8 19 -8 37 -14 40 -14 3
0 6 0 8 -1 49 -15 180 -40 227 -44 30 -2 55 -5 55 -5 0 -7 90 -8 99 -1 6 5 40
6 76 3 81 -6 187 -6 220 1 14 3 59 11 100 17 41 7 84 14 95 16 11 3 36 6 55 9
151 20 416 127 533 215 26 19 153 147 191 191 49 58 178 233 189 257 6 12 14
22 19 22 5 0 7 4 3 9 -3 5 -1 12 5 16 6 3 20 25 31 48 12 23 25 44 29 47 8 6
43 113 59 182 17 73 35 197 46 318 2 25 4 45 5 45 0 0 3 23 5 50 2 28 7 84 10
125 4 41 8 93 10 115 7 112 18 291 18 303 0 6 6 12 12 12 28 0 36 -32 40 -152
3 -68 5 -136 6 -153 1 -16 -2 -42 -5 -57 -3 -15 -3 -29 1 -31 5 -3 7 -34 5
-69 -1 -34 -2 -74 -2 -88 3 -56 2 -77 -4 -112 -4 -22 -3 -39 4 -43 6 -3 8 -11
5 -16 -4 -5 -2 -9 4 -9 15 0 18 17 36 215 3 33 8 74 10 91 3 18 7 63 10 100 3
38 8 92 12 119 3 28 5 79 4 115 -2 76 -2 174 2 430 2 102 0 200 -4 218 -4 17
-4 34 0 36 4 3 6 20 4 38 -8 73 -8 108 0 108 4 0 5 5 1 12 -4 6 -8 79 -10 162
-1 83 -3 153 -4 156 -5 12 -9 94 -9 190 0 58 0 112 -1 120 0 8 0 26 1 40 2 66
3 799 1 825 -6 63 6 146 23 165 23 25 16 52 -18 68 -15 7 -28 16 -28 20 -4 18
-7 50 -10 85 -3 34 -6 37 -25 33 -34 -9 -38 20 -5 33 38 16 61 59 49 91 -5 14
-5 33 -1 45 10 22 10 24 -1 75 -4 19 -3 47 2 60 7 18 6 38 -4 65 -7 22 -13 56
-13 75 1 63 -8 160 -14 167 -4 3 -7 11 -7 17 0 6 4 5 9 -2 5 -9 8 11 9 50 0
116 13 752 16 816 3 50 1 62 -10 58 -10 -4 -14 3 -15 22 0 15 -3 38 -5 51 -6
34 5 20 21 -26 l14 -38 1 40 c1 22 2 61 4 88 2 26 -1 47 -5 47 -15 0 -37 44
-44 85 -4 22 -8 84 -10 137 -4 133 -10 152 -57 193 -23 19 -44 33 -46 30 -3
-2 -14 1 -26 7 -15 9 -158 12 -516 13 -272 1 -513 5 -535 9 -39 7 -42 5 -88
-43 l-47 -49 5 -81 c4 -85 -4 -101 -29 -53 -36 69 -228 252 -265 252 -6 0 -11
3 -11 8 0 12 -173 86 -227 97 -15 3 -44 8 -63 12 -40 7 -192 7 -230 -1 -14 -2
-51 -10 -83 -16 -32 -6 -78 -20 -103 -30 -24 -11 -44 -17 -44 -15 0 6 -162
-78 -181 -93 -218 -179 -212 -173 -278 -269 -43 -64 -97 -164 -93 -175 1 -5
-2 -8 -8 -8 -5 0 -10 -6 -10 -13 0 -8 -7 -28 -16 -46 -9 -17 -17 -37 -18 -44
-1 -7 -4 -16 -7 -22 -4 -5 -18 -48 -33 -95 -15 -47 -31 -99 -37 -117 -5 -18
-12 -40 -14 -50 -8 -38 -37 -169 -41 -188 -5 -21 -10 -48 -19 -100 -3 -16 -7
-41 -10 -55 -6 -31 -16 -96 -21 -135 -7 -57 -15 -130 -19 -160 -1 -16 -4 -30
-5 -30 -1 0 -12 -128 -13 -162 -1 -13 -3 -23 -6 -23 -4 0 -6 -28 -7 -63 0 -34
-4 -100 -8 -147 -12 -159 -18 -295 -20 -548 -2 -139 -6 -255 -9 -258 -3 -3
-34 -8 -69 -10 -34 -3 -83 -7 -106 -8 l-44 -4 6 407 c11 736 10 836 -9 974 -2
18 -7 55 -10 82 -4 28 -8 66 -11 85 -2 19 -8 58 -14 85 -12 62 -19 100 -26
145 -3 19 -16 79 -30 133 -13 54 -22 102 -19 107 3 5 1 10 -4 12 -5 1 -12 17
-14 33 -10 53 -49 178 -73 233 -13 29 -23 55 -23 59 1 3 -3 9 -8 12 -4 3 -14
16 -20 29 -30 53 -39 67 -48 79 -25 31 -31 40 -49 68 -48 74 -215 235 -245
235 -6 0 -11 5 -11 11 0 5 -13 15 -30 20 -16 6 -30 15 -30 20 0 5 -3 8 -7 7
-5 -1 -21 5 -38 14 -36 19 -172 65 -214 73 -78 14 -123 17 -206 17 -77 0 -121
-7 -259 -37 -11 -3 -57 -23 -103 -47 -89 -44 -196 -133 -233 -192 -36 -59 -45
-52 -44 33 1 42 5 213 8 380 3 167 9 428 12 580 10 491 11 615 2 626 -52 63
-66 73 -82 58z m-319 -2435 c14 -24 13 -48 -2 -48 -8 0 -15 -4 -15 -9 0 -10
-18 -17 -62 -25 -17 -3 -32 2 -42 13 -17 19 -14 23 54 61 42 23 56 24 67 8z
m691 -314 c7 8 93 -43 113 -67 30 -36 78 -141 83 -183 2 -21 5 -39 5 -39 1 0
3 -49 6 -109 2 -61 6 -130 9 -155 3 -25 8 -71 11 -101 11 -109 39 -210 57
-210 6 0 7 -92 3 -247 -4 -137 -8 -306 -10 -378 -2 -71 -4 -130 -5 -130 -1 0
-2 -75 -4 -168 -2 -92 -6 -170 -9 -174 -4 -3 -7 1 -7 10 0 9 -5 17 -10 17 -6
0 -8 13 -4 33 7 33 7 120 0 197 -2 25 1 51 6 58 6 6 7 12 3 12 -4 0 -3 6 3 13
5 6 10 55 10 109 0 53 3 101 7 108 4 7 -1 14 -14 17 -23 6 -29 33 -7 33 15 0
15 36 1 195 -2 28 -7 84 -10 125 -6 75 -18 98 -42 78 -10 -8 -13 -5 -13 11 0
12 -6 21 -15 21 -13 0 -14 -11 -10 -62 4 -35 6 -67 5 -73 0 -5 -3 -49 -6 -97
-6 -84 -5 -87 15 -85 12 1 21 6 21 11 0 5 3 6 7 3 9 -10 14 -119 4 -113 -4 3
-7 -6 -7 -20 0 -13 3 -24 6 -24 3 0 6 -18 5 -40 0 -22 -3 -40 -6 -40 -3 0 -6
-17 -6 -37 0 -47 -11 -180 -18 -213 -3 -14 -5 -41 -5 -60 2 -58 2 -123 0 -165
0 -22 5 -72 13 -111 14 -69 13 -73 -15 -170 -15 -54 -30 -106 -32 -115 -3 -9
-9 -33 -14 -52 -7 -26 -7 -37 1 -40 16 -5 -14 -49 -56 -83 -33 -26 -138 -74
-162 -74 -9 0 -88 112 -91 130 0 3 -14 34 -31 70 -26 55 -36 83 -57 155 -2 6
-4 12 -5 15 -21 58 -34 165 -33 260 4 313 -2 637 -12 688 -3 17 -2 32 3 32 5
0 6 17 4 38 -5 36 -7 96 -6 217 0 33 0 139 0 235 -1 156 5 265 18 340 2 14 7
41 10 60 21 129 73 255 124 303 37 35 107 57 140 45 13 -5 26 -6 29 -4z m3213
-170 c2 2 35 6 73 10 58 5 67 4 62 -9 -3 -9 4 -21 17 -30 23 -15 69 -87 73
-113 2 -8 9 -19 17 -25 9 -7 24 -27 35 -46 16 -26 18 -39 11 -59 -5 -14 -7
-46 -3 -71 4 -25 8 -55 10 -66 1 -11 3 -20 4 -20 5 0 32 -364 31 -420 0 -11 0
-54 0 -95 1 -131 1 -189 -2 -460 -1 -146 1 -282 5 -302 4 -21 3 -38 -1 -38 -4
0 -8 -51 -9 -113 -1 -133 -11 -294 -19 -307 -3 -6 -9 -31 -12 -57 -3 -27 -9
-50 -14 -51 -5 -2 -7 -8 -3 -13 6 -10 -23 -114 -54 -199 -9 -25 -15 -48 -14
-52 1 -5 -1 -8 -6 -8 -4 0 -13 -13 -20 -30 -19 -42 -78 -97 -112 -105 -40 -9
-83 2 -139 33 -62 35 -68 41 -101 124 -39 97 -45 146 -55 462 -3 104 -8 192
-10 197 -3 4 -1 10 5 14 6 4 8 11 4 16 -9 15 -10 109 -1 109 5 0 5 5 2 10 -4
6 -8 70 -10 143 -2 73 -6 143 -9 157 -17 69 -19 114 -18 355 1 328 11 534 37
790 1 17 3 45 4 63 0 17 5 32 10 32 16 0 28 -54 19 -90 -4 -19 -11 -53 -14
-75 -3 -22 -8 -42 -9 -43 -2 -2 5 -23 15 -46 15 -37 16 -44 3 -52 -17 -11 -36
-84 -21 -84 5 0 6 -5 2 -11 -3 -6 -8 -49 -10 -95 -2 -47 -5 -90 -7 -96 -1 -7
4 -12 12 -13 8 0 17 -9 22 -20 6 -17 8 -15 9 10 1 17 3 37 5 46 3 16 12 89 20
169 3 25 7 56 10 70 3 14 8 61 10 105 5 71 11 120 15 120 7 0 8 71 0 85 -7 13
-4 24 11 44 16 20 18 30 10 40 -12 14 -8 20 63 103 13 16 23 20 31 13 7 -5 14
-8 16 -6z m1732 -454 c-3 -11 -7 -20 -9 -20 -2 0 -4 9 -4 20 0 11 4 20 9 20 5
0 7 -9 4 -20z m-3 -331 c0 -5 -4 -9 -8 -9 -5 0 -9 7 -9 15 0 8 4 12 9 9 4 -3
8 -9 8 -15z m-15 -129 c3 -5 1 -10 -4 -10 -6 0 -11 5 -11 10 0 6 2 10 4 10 3
0 8 -4 11 -10z m-10 -57 c4 -10 9 -80 10 -156 2 -121 0 -141 -16 -160 -18 -22
-18 -22 -19 -1 0 11 -4 24 -9 30 -17 17 -15 82 5 179 2 11 4 44 5 73 0 52 11
67 24 35z m-11 -654 c-3 -5 -1 -9 3 -9 12 0 15 -48 3 -69 -6 -12 -5 -22 2 -29
14 -14 -8 -89 -26 -89 -9 0 -13 70 -6 97 1 3 1 34 0 69 -1 58 0 63 14 52 9 -7
13 -17 10 -22z m-3204 -9 c0 -11 -4 -20 -9 -20 -13 0 -32 26 -24 33 13 14 33
6 33 -13z m3094 -1947 c3 -44 1 -73 -4 -73 -6 0 -10 12 -11 28 -1 15 -3 52 -5
82 -3 35 -1 51 5 45 5 -6 12 -43 15 -82z m-84 -763 c0 -5 -2 -10 -4 -10 -3 0
-8 5 -11 10 -3 6 -1 10 4 10 6 0 11 -4 11 -10z m-24 -229 c-2 -3 -14 -28 -26
-55 -12 -28 -34 -62 -49 -77 -15 -14 -35 -45 -45 -68 -11 -22 -23 -41 -28 -41
-4 0 -8 -7 -8 -15 0 -8 -4 -15 -8 -15 -4 0 -15 -12 -24 -27 -10 -16 -40 -53
-68 -83 l-52 -55 38 50 c21 28 43 55 49 60 7 6 13 15 15 20 1 6 15 28 30 50
34 49 110 193 134 255 17 42 19 44 32 26 7 -10 12 -22 10 -25z"/>
<path d="M14419 8978 c-1 -13 0 -27 1 -33 1 -5 4 -43 6 -83 2 -41 8 -79 13
-86 6 -7 8 -16 5 -19 -4 -4 -8 -45 -10 -92 -3 -70 -1 -85 11 -85 9 0 21 -11
27 -25 13 -30 24 -32 37 -7 7 13 6 23 -1 30 -7 7 -9 12 -4 12 4 0 0 7 -8 16
-20 20 -20 34 -1 34 8 0 15 7 15 15 0 8 -4 15 -10 15 -14 0 -13 37 1 42 17 6
17 136 1 159 -10 15 -17 17 -27 9 -16 -14 -29 14 -17 38 10 20 -8 76 -26 80
-6 1 -13 -8 -13 -20z"/>
<path d="M9847 12423 c1 -65 5 -156 8 -203 8 -96 8 -86 0 -200 -3 -47 -7 -141
-9 -210 -1 -69 -5 -135 -10 -147 -10 -31 10 -66 35 -60 10 3 19 0 20 -6 14
-202 19 -111 19 356 0 433 -3 492 -25 457 -3 -5 -11 -10 -16 -10 -6 0 -8 4 -4
9 3 6 8 37 11 70 4 54 3 61 -13 61 -16 0 -18 -11 -16 -117z"/>
<path d="M9902 11425 c0 -16 2 -22 5 -12 2 9 2 23 0 30 -3 6 -5 -1 -5 -18z"/>
<path d="M9875 11330 c0 -33 3 -60 6 -60 19 0 44 66 29 75 -4 3 -6 14 -3 25 4
15 0 20 -13 20 -16 0 -19 -8 -19 -60z"/>
<path d="M9865 11175 c0 -14 3 -25 6 -25 3 0 6 -15 6 -32 1 -57 7 -97 13 -93
7 4 5 53 -4 123 -8 54 -21 71 -21 27z"/>
<path d="M9889 10948 c-8 -27 -11 -72 -15 -218 -3 -96 -2 -172 1 -168 4 3 9
64 11 135 3 70 6 156 8 191 1 34 1 62 -1 62 -1 0 -3 -1 -4 -2z"/>
<path d="M9865 10528 c1 -13 3 -29 4 -35 0 -7 6 -13 12 -13 14 0 7 62 -7 67
-7 2 -10 -6 -9 -19z"/>
<path d="M9861 10365 c-6 -42 -5 -195 1 -195 4 0 8 15 9 33 1 17 2 46 4 62 2
28 -11 123 -14 100z"/>
<path d="M9784 7926 l1 -135 42 -48 c43 -51 86 -95 426 -447 541 -559 737
-756 752 -756 8 0 17 5 20 10 4 6 21 -7 38 -28 70 -83 229 -212 263 -212 7 0
14 -4 16 -8 4 -11 160 -72 197 -77 14 -2 38 -7 54 -10 15 -3 27 -1 27 5 0 9
-1824 1840 -1833 1840 -2 0 -4 -60 -3 -134z"/>
<path d="M9769 7028 c0 -2 -2 -118 -4 -258 -2 -140 -6 -276 -9 -302 -5 -46 -5
-47 43 -87 l48 -40 184 -1 c167 0 288 -5 361 -15 15 -1 34 2 43 9 13 10 -7 35
-145 176 -89 91 -240 245 -335 343 -153 156 -183 185 -186 175z"/>
<path d="M9350 6330 c0 -5 5 -10 10 -10 6 0 10 5 10 10 0 6 -4 10 -10 10 -5 0
-10 -4 -10 -10z"/>
<path d="M9426 6301 c-17 -18 -16 -19 23 -26 43 -7 51 -18 25 -33 -25 -14 -8
-35 17 -22 10 6 19 8 19 4 0 -4 9 1 20 11 25 22 25 27 1 53 -26 31 -82 38
-105 13z"/>
<path d="M8910 6251 c-18 -5 -24 -13 -22 -27 7 -39 17 -45 37 -27 11 10 30 17
43 15 22 -3 52 13 52 27 0 4 -10 7 -22 7 -13 0 -32 3 -43 6 -11 3 -31 3 -45
-1z"/>
<path d="M4240 6190 c0 -5 7 -10 16 -10 8 0 12 5 9 10 -3 6 -10 10 -16 10 -5
0 -9 -4 -9 -10z"/>
<path d="M9277 6193 c-4 -3 -7 -15 -7 -26 0 -15 -3 -17 -13 -9 -21 18 -79 19
-85 3 -3 -10 1 -12 16 -9 15 4 23 0 27 -13 5 -14 14 -19 36 -17 17 1 33 6 35
10 3 5 10 6 15 3 5 -4 9 -1 9 4 0 6 -5 11 -11 11 -7 0 -9 10 -5 25 6 24 -3 33
-17 18z"/>
<path d="M9100 6154 c0 -8 5 -12 10 -9 6 3 10 10 10 16 0 5 -4 9 -10 9 -5 0
-10 -7 -10 -16z"/>
<path d="M9357 6134 c-16 -16 -7 -35 14 -29 14 5 25 1 33 -10 12 -16 13 -16
19 -1 4 9 2 16 -4 16 -6 0 -7 5 -4 10 3 6 0 10 -9 10 -8 0 -21 2 -28 5 -8 3
-17 2 -21 -1z"/>
<path d="M9000 6091 c0 -6 5 -13 10 -16 6 -3 10 1 10 9 0 9 -4 16 -10 16 -5 0
-10 -4 -10 -9z"/>
<path d="M9286 6082 c-2 -4 -1 -14 5 -22 7 -12 9 -10 9 8 0 23 -5 28 -14 14z"/>
<path d="M11430 6083 c0 -4 -30 -8 -68 -9 -62 -1 -214 -10 -322 -19 -191 -16
-276 -22 -439 -30 -117 -6 -160 -14 -80 -16 163 -4 233 -7 299 -14 41 -5 96
-9 122 -9 27 -1 48 -4 48 -7 0 -3 6 -6 13 -6 19 -1 159 -13 190 -17 15 -2 30
0 33 5 2 4 12 5 22 2 14 -5 15 -3 5 8 -22 23 -15 38 15 33 58 -11 84 -42 102
-124 16 -71 19 -79 33 -107 56 -106 188 -140 308 -80 30 15 61 33 69 40 26 21
90 103 90 116 0 6 12 30 27 52 35 53 86 76 166 73 61 -2 146 -12 158 -19 4 -3
117 -17 139 -17 36 -1 39 2 29 34 -12 42 -12 43 6 28 8 -7 15 -18 15 -25 0
-15 51 -12 95 6 26 11 74 13 83 4 2 -2 5 -11 6 -22 2 -13 12 -18 34 -20 31 -1
31 -1 16 22 -8 13 -11 25 -7 27 17 10 73 -1 88 -16 9 -9 13 -16 9 -16 -3 0 -2
-6 4 -12 5 -7 13 -28 17 -45 7 -35 18 -39 60 -23 24 9 25 9 14 -12 -7 -13 -18
-29 -26 -36 -7 -7 -13 -17 -13 -21 0 -10 51 -33 58 -26 3 2 10 1 16 -4 6 -6
29 -12 51 -15 22 -3 49 -8 60 -10 11 -2 27 -5 36 -5 18 -1 25 -66 9 -76 -6 -3
-10 -2 -10 2 0 5 -16 10 -35 11 -25 2 -40 -3 -52 -18 -18 -20 -19 -24 -22 -56
-1 -13 -5 -12 -28 6 -50 38 -98 66 -129 77 -42 15 -79 -3 -79 -37 0 -26 17
-33 46 -18 11 5 21 2 29 -7 7 -8 16 -13 20 -10 5 3 11 1 15 -5 3 -5 14 -10 24
-10 10 0 29 -8 42 -18 13 -10 29 -18 34 -17 178 17 291 159 311 391 2 25 10
51 18 59 19 20 32 19 16 0 -7 -8 -11 -15 -9 -16 2 0 13 -2 24 -4 31 -5 76 -14
126 -26 80 -18 129 4 129 58 0 27 -25 39 -83 41 -21 1 -42 4 -47 7 -5 3 -11 1
-15 -5 -4 -6 -10 -8 -14 -6 -4 3 -37 1 -74 -4 -36 -6 -90 -12 -119 -15 -29 -3
-71 -8 -93 -12 -51 -7 -365 -10 -365 -3 0 3 -24 6 -53 6 -28 1 -115 5 -192 9
-166 9 -288 9 -370 1 -50 -5 -76 -8 -145 -18 -3 -1 -12 1 -20 4 -29 11 -165
29 -232 31 -38 1 -68 6 -68 10 0 5 -5 5 -11 1 -14 -8 -135 -8 -149 1 -5 3 -10
3 -10 -2z"/>
<path d="M10050 6019 c-25 -4 23 -6 107 -6 83 1 149 4 147 7 -8 7 -200 6 -254
-1z"/>
<path d="M9084 5974 c3 -9 6 -18 6 -20 0 -3 5 -2 10 1 16 10 12 35 -6 35 -11
0 -14 -5 -10 -16z"/>
<path d="M4520 5960 c0 -5 4 -10 9 -10 6 0 13 5 16 10 3 6 -1 10 -9 10 -9 0
-16 -4 -16 -10z"/>
<path d="M8135 5920 c-3 -5 -1 -10 4 -10 6 0 11 5 11 10 0 6 -2 10 -4 10 -3 0
-8 -4 -11 -10z"/>
<path d="M4270 5833 c0 -26 1 -26 15 -7 19 25 19 34 0 34 -10 0 -15 -10 -15
-27z"/>
<path d="M8042 5846 c1 -10 8 -17 13 -17 15 1 12 24 -3 29 -9 3 -13 -2 -10
-12z"/>
<path d="M4439 5839 c-12 -8 -12 -10 1 -19 17 -11 32 -8 37 7 5 15 -21 23 -38
12z"/>
<path d="M6709 5824 c-12 -14 -11 -16 5 -13 11 2 21 10 24 17 5 17 -13 15 -29
-4z"/>
<path d="M9080 5816 c0 -28 14 -35 23 -12 3 8 -1 20 -9 26 -12 10 -14 8 -14
-14z"/>
<path d="M6905 5820 c3 -5 8 -10 11 -10 2 0 4 5 4 10 0 6 -5 10 -11 10 -5 0
-7 -4 -4 -10z"/>
<path d="M4534 5809 c-7 -12 23 -29 40 -23 25 10 19 29 -10 29 -14 0 -28 -3
-30 -6z"/>
<path d="M7260 5806 c0 -2 7 -9 15 -16 9 -7 15 -8 15 -2 0 5 -7 12 -15 16 -8
3 -15 4 -15 2z"/>
<path d="M8023 5798 c2 -7 12 -13 22 -13 10 0 20 6 23 13 2 7 -6 12 -23 12
-17 0 -25 -5 -22 -12z"/>
<path d="M6397 5793 c-3 -4 7 -17 22 -27 l26 -20 -20 25 c-11 13 -21 25 -21
27 -1 2 -4 0 -7 -5z"/>
<path d="M6748 5793 c-18 -5 -31 -30 -22 -44 3 -5 1 -9 -4 -9 -5 0 -9 -6 -9
-13 0 -14 23 -14 94 -2 29 5 31 8 21 24 -15 25 -59 48 -80 44z"/>
<path d="M6672 5777 c-13 -17 -24 -67 -15 -67 13 1 39 24 45 40 8 21 -17 43
-30 27z"/>
<path d="M8220 5752 c0 -12 19 -26 26 -19 2 2 -2 10 -11 17 -9 8 -15 8 -15 2z"/>
<path d="M7705 5740 c-3 -5 1 -10 9 -10 9 0 16 5 16 10 0 6 -4 10 -9 10 -6 0
-13 -4 -16 -10z"/>
<path d="M8311 5737 c-6 -8 -12 -29 -13 -48 -5 -62 -84 -76 -138 -25 l-31 28
5 -26 c6 -31 -3 -33 -33 -7 -19 17 -20 21 -7 34 13 13 13 17 1 27 -11 9 -18 7
-34 -9 -25 -25 -27 -54 -5 -76 20 -20 16 -24 -24 -29 -17 -2 -46 -12 -65 -24
l-35 -20 -6 24 c-4 14 -4 30 0 36 4 6 3 8 -4 4 -10 -6 -28 -63 -24 -78 1 -5
-5 -8 -14 -8 -12 0 -15 6 -10 25 6 22 3 25 -19 25 -25 0 -33 -14 -15 -25 27
-17 -6 -22 -53 -8 -28 8 -78 16 -109 18 -31 2 -61 6 -67 10 -15 9 -14 28 2 20
6 -4 3 1 -8 9 -25 21 -36 17 -59 -24 l-20 -33 25 6 c19 4 32 -2 59 -29 30 -30
40 -34 70 -30 19 2 40 13 48 23 13 17 14 16 10 -9 -3 -16 -1 -25 6 -22 6 2 29
6 52 8 22 2 50 9 62 15 18 10 21 8 27 -19 8 -36 14 -37 51 -8 23 18 27 19 21
5 -3 -9 -4 -17 0 -17 12 0 32 36 33 58 0 30 13 28 50 -8 65 -63 103 -70 193
-36 57 23 59 43 5 68 -37 17 -47 31 -29 42 5 4 11 1 13 -5 2 -7 20 -13 39 -14
45 -3 71 -14 62 -29 -14 -20 -31 -76 -24 -77 3 0 14 -2 23 -4 15 -3 17 2 12
31 -5 33 -5 33 30 32 41 -1 41 -1 20 -22 -14 -15 -14 -16 1 -16 19 0 28 9 70
65 48 65 80 84 69 41 -8 -35 26 -42 108 -21 34 9 33 41 -1 63 -25 17 -36 20
-89 24 -28 2 -34 7 -39 30 -6 32 -27 36 -61 12 -13 -9 -22 -11 -22 -4 0 12
-59 40 -83 40 -8 0 -20 -6 -26 -13z"/>
<path d="M4378 5703 c-3 -37 -2 -49 5 -86 5 -22 12 -35 19 -31 5 4 7 19 4 35
-3 15 -1 31 4 34 16 10 11 52 -6 59 -22 9 -24 8 -26 -11z"/>
<path d="M8977 5714 c-8 -8 1 -24 14 -24 5 0 9 7 9 15 0 15 -12 20 -23 9z"/>
<path d="M7998 5685 c-6 -27 -1 -30 21 -16 8 5 11 16 8 25 -9 24 -24 19 -29
-9z"/>
<path d="M7230 5679 c0 -4 6 -9 13 -12 8 -3 14 0 14 7 0 7 -6 13 -14 13 -7 0
-13 -4 -13 -8z"/>
<path d="M8864 5668 c4 -13 9 -31 11 -41 2 -9 7 -22 10 -27 3 -6 0 -10 -7 -10
-36 -1 -126 -16 -155 -25 -28 -9 -28 -11 -5 -39 19 -24 57 -22 57 4 0 11 17
14 92 13 102 -2 159 14 206 56 24 22 26 27 12 40 -9 9 -36 15 -75 16 -41 1
-57 -2 -50 -9 14 -14 12 -26 -5 -26 -8 0 -15 -4 -15 -10 0 -18 -19 -10 -36 15
-15 22 -15 26 0 40 21 21 21 20 -15 23 -28 2 -31 0 -25 -20z"/>
<path d="M6433 5648 c-35 -25 -42 -38 -18 -38 22 0 18 -13 -12 -34 -16 -12
-45 -20 -71 -21 -41 -2 -43 -1 -38 21 6 23 6 23 -44 -6 -28 -17 -55 -30 -60
-30 -6 0 -10 -5 -10 -12 0 -6 -3 -8 -7 -5 -3 4 -12 2 -20 -4 -10 -9 -13 -6
-14 12 -1 13 -1 29 0 34 0 6 -18 9 -44 7 -43 -4 -45 -6 -43 -32 1 -15 -4 -35
-11 -44 -9 -10 -9 -16 -2 -16 6 0 8 -11 5 -29 -6 -26 -3 -30 38 -43 57 -20
265 -14 287 7 2 3 -1 17 -8 32 -10 21 -9 28 1 34 18 12 28 11 28 -1 0 -6 13
-8 30 -5 31 5 38 -3 19 -22 -19 -19 -15 -81 6 -97 29 -21 121 -12 190 19 129
58 120 56 143 35 25 -23 34 -9 20 32 -9 25 -52 51 -85 51 -11 0 -13 8 -9 29 5
28 -14 72 -39 90 -13 10 -58 4 -62 -8 -4 -13 50 -44 76 -44 38 0 17 -28 -35
-46 -41 -15 -54 -6 -58 38 -9 93 -88 143 -153 96z"/>
<path d="M4248 5634 c-13 -13 -14 -22 -6 -48 15 -43 15 -43 44 -11 23 25 24
29 10 37 -9 5 -16 16 -16 23 0 20 -12 19 -32 -1z"/>
<path d="M8710 5641 c0 -6 5 -13 10 -16 6 -3 10 1 10 9 0 9 -4 16 -10 16 -5 0
-10 -4 -10 -9z"/>
<path d="M7427 5623 c-8 -13 5 -28 39 -46 l31 -16 1 30 c0 22 -4 29 -18 29
-10 0 -25 3 -33 6 -8 3 -17 1 -20 -3z"/>
<path d="M6220 5603 c0 -7 7 -13 15 -13 8 0 15 6 15 13 0 8 -7 14 -15 14 -8 0
-15 -6 -15 -14z"/>
<path d="M7290 5604 c-45 -14 -74 -39 -64 -55 3 -5 2 -9 -3 -9 -4 0 -9 -14
-10 -30 -2 -25 3 -33 24 -41 34 -13 39 -6 26 34 -10 32 -10 33 21 29 25 -3 37
3 59 27 51 57 33 72 -53 45z"/>
<path d="M6765 5582 c12 -61 18 -72 40 -72 14 0 33 13 49 34 33 44 25 50 -41
30 -13 -3 -23 -2 -23 4 0 5 -6 12 -14 15 -10 4 -14 0 -11 -11z"/>
<path d="M4516 5583 c-9 -9 -7 -33 3 -33 12 0 22 28 12 34 -5 3 -11 3 -15 -1z"/>
<path d="M4608 5579 c-10 -5 -18 -17 -18 -25 0 -19 16 -10 30 17 12 22 11 22
-12 8z"/>
<path d="M6945 5567 c-19 -29 -30 -117 -15 -117 12 0 34 50 25 58 -11 11 29
42 54 42 l26 0 -25 20 c-33 26 -46 25 -65 -3z"/>
<path d="M7400 5566 c0 -1 5 -17 11 -35 12 -33 23 -39 36 -18 13 20 9 31 -16
45 -24 12 -31 14 -31 8z"/>
<path d="M8586 5548 c-9 -12 -16 -30 -16 -39 0 -14 5 -16 28 -10 31 9 40 34
18 56 -13 14 -16 13 -30 -7z"/>
<path d="M4090 5514 c0 -8 6 -11 15 -8 8 4 15 9 15 13 0 4 -7 8 -15 8 -8 0
-15 -6 -15 -13z"/>
<path d="M7345 5520 c-3 -5 3 -10 14 -10 12 0 21 5 21 10 0 6 -6 10 -14 10 -8
0 -18 -4 -21 -10z"/>
<path d="M4310 5512 c0 -5 -10 -14 -22 -20 -13 -6 -17 -11 -10 -11 19 -1 52
18 52 29 0 6 -4 10 -10 10 -5 0 -10 -4 -10 -8z"/>
<path d="M6875 5500 c-3 -5 -1 -10 4 -10 6 0 11 5 11 10 0 6 -2 10 -4 10 -3 0
-8 -4 -11 -10z"/>
<path d="M4148 5489 c-16 -9 -26 -39 -13 -39 14 0 55 25 59 36 6 17 -21 18
-46 3z"/>
<path d="M4710 5490 c0 -5 5 -10 10 -10 6 0 10 5 10 10 0 6 -4 10 -10 10 -5 0
-10 -4 -10 -10z"/>
<path d="M7015 5490 c4 -6 11 -8 16 -5 14 9 11 15 -7 15 -8 0 -12 -5 -9 -10z"/>
<path d="M6972 5466 c13 -14 28 -12 28 5 0 5 -9 9 -20 9 -17 0 -19 -2 -8 -14z"/>
<path d="M7450 5468 c0 -4 4 -8 9 -8 6 0 12 4 15 8 3 5 -1 9 -9 9 -8 0 -15 -4
-15 -9z"/>
<path d="M7110 5445 c0 -8 5 -15 10 -15 6 0 10 7 10 15 0 8 -4 15 -10 15 -5 0
-10 -7 -10 -15z"/>
<path d="M4222 4816 l3 -391 75 0 75 0 5 175 5 175 54 1 c39 0 58 -4 68 -16 8
-9 39 -77 69 -151 30 -74 60 -146 66 -161 12 -25 15 -26 95 -26 46 0 83 3 83
8 0 7 -84 231 -110 295 -24 56 -22 61 23 79 31 11 43 22 44 38 1 11 6 24 10
27 5 3 8 61 8 129 -2 205 -4 206 -338 207 l-237 1 2 -390z m389 232 c11 -17
11 -129 0 -146 -6 -10 -36 -14 -107 -14 -54 0 -105 1 -111 1 -9 1 -13 23 -13
75 0 41 2 81 5 88 8 19 214 16 226 -4z"/>
<path d="M6062 5200 c-6 -4 -42 -105 -48 -135 -1 -5 -23 -77 -48 -160 -26 -82
-49 -157 -51 -165 -2 -8 -16 -53 -30 -100 -52 -165 -63 -210 -57 -214 4 -2 43
-3 87 -2 76 1 80 2 87 26 5 14 16 50 26 80 l18 55 85 0 c115 0 141 -6 145 -32
2 -12 12 -45 21 -75 l18 -53 93 -1 c62 0 92 3 92 11 0 6 -16 63 -36 126 -42
135 -76 245 -97 314 -8 28 -30 97 -48 155 -18 58 -33 107 -34 110 0 3 -4 11
-8 18 -5 6 -6 12 -2 12 3 0 1 9 -4 19 -9 17 -22 19 -106 18 -53 -1 -99 -4
-103 -7z m110 -231 c5 -19 11 -45 13 -59 3 -14 8 -32 11 -40 9 -22 53 -185 51
-187 -3 -2 -105 -5 -150 -4 -35 1 -37 2 -31 29 3 15 8 34 11 42 6 16 7 20 17
60 32 132 53 199 61 197 5 -2 13 -19 17 -38z"/>
<path d="M7521 5201 c-4 -3 -8 -180 -8 -393 l0 -388 26 -1 c46 -2 78 -6 93
-11 36 -14 41 5 41 180 l0 170 87 0 c48 -1 92 2 98 6 7 4 12 3 12 -2 0 -5 14
-7 30 -4 30 4 30 4 28 66 l-3 61 -85 1 c-47 1 -104 2 -126 3 l-41 1 1 93 1 92
161 1 c89 1 168 4 176 7 11 4 14 19 13 59 -2 29 -3 56 -4 59 -1 7 -488 7 -500
0z"/>
<path d="M9049 5191 c-4 -84 1 -753 6 -760 3 -6 38 -9 78 -8 l72 2 0 390 0
390 -77 1 c-65 1 -78 -1 -79 -15z"/>
<path d="M10332 5196 c-3 -6 -6 -182 -7 -392 l0 -381 80 1 80 1 0 172 c1 95 4
175 7 178 3 3 22 9 42 12 48 8 66 -9 101 -95 16 -37 36 -85 45 -107 10 -22 28
-64 40 -92 13 -32 29 -53 39 -54 30 -2 166 3 169 6 2 2 -1 11 -7 22 -6 10 -42
86 -82 168 -71 150 -100 195 -127 195 -7 0 7 20 32 45 25 24 46 48 46 53 0 5
23 59 52 118 29 60 52 112 53 116 0 3 3 10 8 14 4 4 7 13 7 20 0 8 -24 11 -85
11 l-84 -2 -57 -138 c-32 -77 -65 -148 -73 -158 -10 -12 -31 -21 -56 -22 -71
-5 -71 -6 -70 162 1 129 -1 151 -14 155 -31 8 -132 2 -139 -8z"/>
<path d="M11990 5196 c-1 -17 -1 -632 -1 -708 l1 -68 63 1 c34 1 69 3 78 6 15
3 17 39 15 391 l-1 387 -77 1 c-51 1 -78 -3 -78 -10z"/>
<path d="M4256 4102 c-2 -1 1 -22 6 -45 6 -23 11 -49 12 -57 4 -23 38 -173 44
-190 3 -8 6 -26 7 -40 2 -14 7 -36 13 -50 5 -14 10 -29 11 -35 1 -15 68 -16
79 -2 5 7 12 23 15 37 12 54 29 116 37 135 5 11 12 34 16 50 4 17 8 35 10 40
2 6 5 21 8 34 8 34 14 37 21 10 26 -113 42 -185 50 -229 17 -87 18 -90 50 -90
23 0 37 13 41 35 1 6 9 37 18 70 9 33 19 69 21 80 3 14 63 245 65 251 0 0 -11
0 -24 0 -21 0 -27 -11 -64 -130 -22 -72 -43 -143 -46 -158 -10 -43 -23 -33
-30 24 -4 28 -10 57 -14 62 -3 6 -7 16 -8 21 -1 6 -4 26 -8 45 -3 19 -12 58
-21 87 -14 47 -18 51 -43 49 -22 -3 -30 -12 -45 -52 -11 -27 -20 -56 -22 -65
-2 -9 -15 -53 -29 -98 -14 -45 -26 -94 -26 -108 0 -36 -11 -22 -16 19 -2 18
-11 60 -20 93 -9 33 -17 68 -16 78 0 9 -2 17 -6 17 -4 0 -8 8 -8 18 -1 30 -12
84 -19 90 -7 7 -53 10 -59 4z"/>
<path d="M5188 4081 c-12 -32 -124 -371 -129 -391 -3 -11 5 -15 29 -16 31 -1
34 2 45 43 6 23 15 43 20 43 4 0 6 4 3 8 -14 24 25 36 106 33 27 -1 44 -20 51
-58 11 -54 26 -73 57 -71 35 3 34 -1 14 63 -9 28 -17 55 -18 60 -1 6 -11 37
-21 70 -10 33 -18 64 -16 69 1 4 -4 14 -10 22 -6 8 -8 14 -4 14 4 0 2 7 -5 15
-6 8 -9 19 -6 24 4 5 2 12 -4 16 -5 3 -10 16 -10 28 -1 33 -21 52 -58 53 -27
1 -36 -4 -44 -25z m66 -99 c9 -27 18 -57 21 -68 2 -10 7 -29 11 -41 5 -18 2
-23 -12 -24 -11 0 -36 -1 -57 -2 -20 -1 -37 -1 -37 0 0 2 17 49 36 98 11 29
11 32 13 60 2 36 7 31 25 -23z"/>
<path d="M7035 4097 c-22 -5 -42 -13 -45 -18 -3 -4 -5 -97 -5 -206 0 -176 2
-198 17 -201 25 -5 34 25 32 115 l-1 81 31 -2 c59 -5 73 -15 92 -64 10 -26 19
-52 20 -58 6 -36 17 -52 40 -57 32 -6 38 9 21 54 -7 18 -12 43 -12 54 1 27
-32 75 -52 75 -11 0 -3 12 21 33 42 36 54 79 35 134 -8 26 -19 35 -57 47 -67
22 -92 24 -137 13z m113 -63 c21 -18 27 -42 23 -86 -3 -37 -107 -72 -130 -44
-7 8 -9 148 -2 152 0 0 20 0 44 0 27 -1 50 -8 65 -22z"/>
<path d="M5726 4074 c-10 -26 11 -43 42 -35 15 5 36 5 47 1 11 -4 23 -6 28 -3
7 4 8 -16 8 -239 l0 -128 24 2 24 2 0 146 c0 233 0 232 13 224 14 -9 92 -9
106 0 6 3 9 14 8 24 -3 15 -19 17 -148 20 -128 2 -147 0 -152 -14z"/>
<path d="M6379 4067 c0 -12 -1 -105 -1 -207 l-1 -185 109 -1 c108 -1 128 4
117 33 -4 9 -28 13 -88 13 -90 0 -92 1 -89 60 4 96 -5 86 80 85 72 0 77 1 80
23 4 24 -1 25 -103 22 -29 -1 -53 2 -54 7 -1 4 -2 34 -3 65 -1 61 -4 59 69 58
96 -1 115 4 108 29 -4 17 -16 19 -114 19 -105 0 -109 -1 -110 -21z"/>
<path d="M8029 4089 c-5 -24 -8 -83 -13 -244 l-6 -190 72 -2 c83 -3 146 20
167 61 29 53 6 141 -39 153 -11 3 -16 11 -13 19 3 8 9 12 13 9 11 -7 40 28 49
62 12 41 -10 88 -51 109 -28 15 -176 34 -179 23z m118 -53 c58 -6 83 -25 83
-62 0 -28 -40 -54 -95 -61 -42 -5 -44 -4 -47 24 -6 54 3 112 17 107 7 -3 26
-7 42 -8z m23 -177 c0 -5 6 -6 13 -3 23 8 60 -30 63 -64 2 -35 -33 -81 -63
-83 -10 -1 -35 -2 -55 -3 l-38 -2 0 76 c0 42 2 79 4 81 8 8 76 6 76 -2z"/>
<path d="M8730 4067 c-80 -38 -116 -101 -114 -197 1 -36 4 -76 8 -89 8 -36 45
-85 82 -110 34 -24 130 -39 161 -26 10 4 23 9 30 10 25 6 71 49 92 86 25 43
33 112 19 149 -6 14 -12 36 -15 50 -5 28 -27 67 -53 91 -24 23 -76 49 -84 42
-3 -4 -6 -2 -6 4 0 18 -74 12 -120 -10z m170 -62 c73 -70 61 -250 -19 -298
-73 -43 -161 4 -176 95 -25 143 30 242 129 233 24 -2 48 -13 66 -30z"/>
<path d="M9369 4063 c-9 -211 3 -335 37 -370 39 -40 136 -46 190 -12 59 36 72
80 73 255 2 147 1 154 -18 154 -27 0 -29 -15 -29 -160 1 -70 -4 -141 -11 -161
-14 -44 -55 -70 -101 -63 -69 11 -79 40 -79 225 l0 154 -30 3 c-28 3 -31 0
-32 -25z"/>
<path d="M10095 4082 c-11 -8 -14 -414 -3 -422 10 -8 203 -4 216 4 8 5 9 13 3
23 -6 12 -27 17 -87 18 -44 1 -81 3 -85 4 -3 0 -5 85 -5 188 1 159 -1 188 -14
190 -8 2 -19 0 -25 -5z"/>
<path d="M10758 4085 c-2 -2 -18 -5 -36 -8 -19 -3 -37 -8 -40 -12 -3 -3 -7
-36 -8 -73 -1 -37 -5 -128 -8 -202 l-5 -135 68 1 c120 2 172 18 225 71 43 42
57 81 57 158 1 119 -77 194 -208 201 -23 1 -43 1 -45 -1z m81 -37 c52 -10 86
-45 102 -102 13 -49 10 -115 -8 -143 -7 -13 -11 -23 -9 -23 14 0 -54 -59 -79
-68 -35 -14 -114 -12 -116 3 -5 47 -2 331 3 336 12 8 59 7 107 -3z"/>
<path d="M11386 4081 c-3 -4 -5 -101 -5 -216 l-1 -210 110 0 c98 0 111 2 116
18 3 10 3 21 0 24 -3 4 -44 7 -90 7 -96 1 -95 0 -86 91 6 56 -2 52 113 54 44
1 48 3 45 23 -3 21 -8 23 -76 24 -40 0 -75 4 -79 8 -7 7 -4 126 3 138 3 5 14
3 26 -3 14 -8 23 -8 31 0 7 7 14 7 24 0 7 -7 13 -7 13 -2 0 11 29 11 47 0 11
-7 40 20 30 29 -3 3 -32 8 -64 10 -32 2 -79 6 -105 9 -26 2 -50 1 -52 -4z"/>
<path d="M12055 4085 c-5 -2 -27 -6 -47 -10 -36 -6 -38 -8 -34 -38 3 -18 7
-77 11 -132 7 -112 16 -209 24 -247 1 -8 28 -4 38 5 4 4 7 47 8 95 l0 87 40 1
c52 1 68 -16 94 -103 20 -64 25 -72 46 -71 23 2 24 9 4 53 -4 11 -10 34 -11
52 -2 17 -16 45 -30 62 l-27 29 24 16 c69 45 61 158 -13 188 -27 10 -109 19
-127 13z m47 -49 c32 3 78 -35 78 -65 0 -53 -32 -83 -90 -87 -14 -1 -31 -3
-39 -5 -12 -3 -15 10 -16 66 -1 92 3 107 24 96 9 -4 28 -6 43 -5z"/>
<path d="M13155 4077 c-98 -33 -154 -110 -160 -219 -2 -39 49 -141 86 -172 36
-31 102 -50 144 -42 80 15 116 24 120 27 2 3 6 41 9 86 2 46 7 87 10 92 11 17
-25 34 -67 32 -23 -2 -49 -3 -59 -3 -16 1 -32 -34 -19 -42 3 -2 20 -3 38 -2
20 1 34 -4 42 -16 6 -10 7 -18 3 -18 -5 0 -7 -13 -4 -30 2 -16 1 -41 -2 -55
-6 -22 -12 -25 -52 -25 -25 0 -57 6 -72 14 -32 16 -83 72 -75 80 4 3 2 6 -4 6
-10 0 -13 18 -15 91 -1 46 29 107 65 133 23 17 42 21 102 19 59 -1 75 2 80 14
3 9 1 21 -4 26 -14 14 -129 17 -166 4z"/>
<path d="M13818 4060 c-5 -14 -11 -32 -13 -40 -2 -8 -30 -93 -63 -187 -34
-100 -54 -173 -48 -174 50 -5 51 -4 74 56 12 32 27 62 33 65 13 8 128 4 137
-5 4 -3 16 -32 28 -63 19 -53 22 -57 50 -54 16 2 30 4 30 5 1 1 -30 98 -69
215 l-71 213 -39 -3 c-31 -2 -41 -7 -49 -28z m70 -79 c0 -16 7 -43 16 -59 8
-16 12 -32 9 -36 -4 -3 -1 -6 6 -6 7 0 10 -4 6 -9 -3 -5 -1 -12 5 -16 25 -16
5 -24 -54 -23 l-63 2 31 92 c31 94 42 108 44 55z"/>
<path d="M14433 4078 c0 -7 -4 -56 -8 -108 -3 -52 -8 -122 -10 -155 -3 -33 -7
-81 -10 -107 -3 -33 -1 -47 9 -51 30 -12 39 15 51 153 2 19 6 51 9 70 4 19 7
58 7 85 1 44 2 47 12 25 5 -14 12 -34 14 -45 2 -11 8 -31 13 -45 5 -14 11 -34
13 -45 1 -11 5 -24 8 -30 3 -5 16 -45 29 -87 26 -85 43 -101 64 -60 17 35 41
105 38 115 -1 4 3 7 8 7 6 0 9 3 8 8 0 4 2 14 5 22 13 30 47 143 47 156 0 7 3
15 8 17 4 3 8 -43 8 -101 1 -59 4 -118 8 -132 3 -13 8 -42 12 -65 7 -47 4 -42
29 -47 19 -3 20 2 19 72 -1 72 -11 226 -23 347 -1 6 -15 11 -32 10 -29 -2 -34
-7 -52 -57 -12 -30 -23 -57 -26 -60 -4 -3 -7 -12 -9 -20 -1 -8 -12 -38 -23
-66 -11 -29 -21 -59 -23 -68 -1 -8 -5 -19 -9 -22 -4 -4 -7 -16 -7 -26 0 -48
-21 -5 -65 135 -51 157 -52 160 -54 177 -2 15 -68 12 -68 -2z"/>
<path d="M15200 4018 c0 -29 -1 -57 -1 -63 0 -5 2 -20 5 -32 3 -14 0 -23 -7
-23 -8 0 -8 -3 0 -11 7 -7 8 -20 4 -33 -5 -11 -5 -30 -1 -41 4 -11 4 -27 -1
-36 -4 -8 -4 -21 0 -27 4 -7 6 -35 3 -62 l-4 -50 121 0 121 0 0 24 c0 24 -2
25 -82 24 -46 0 -89 1 -95 1 -9 1 -13 24 -13 80 l0 79 63 0 c99 0 97 0 97 26
0 22 -3 23 -70 22 -38 -1 -75 1 -81 4 -6 4 -9 32 -7 65 l3 59 80 2 c98 2 90 0
92 24 2 19 -4 20 -112 20 l-113 0 -2 -52z"/>
<path d="M15862 4040 c-51 -23 -77 -75 -63 -126 10 -36 67 -98 82 -89 4 3 10
1 14 -5 3 -5 14 -10 24 -10 24 0 58 -29 66 -57 9 -31 -32 -71 -80 -77 -22 -3
-44 -1 -50 3 -5 5 -22 11 -36 15 -22 5 -28 2 -33 -17 -3 -12 -6 -25 -6 -29 0
-5 47 -8 104 -8 101 0 105 1 125 26 26 34 27 89 2 130 -12 20 -43 43 -84 64
-74 37 -95 66 -81 111 10 33 103 50 141 26 6 -4 15 4 21 18 9 20 8 25 -7 30
-43 13 -102 11 -139 -5z"/>
</g>
</svg>
