<?xml version="1.0" encoding="utf-8"?>
<!-- Generator: Adobe Illustrator 24.1.0, SVG Export Plug-In . SVG Version: 6.00 Build 0)  -->
<svg version="1.1" id="Vrstva_1" xmlns="http://www.w3.org/2000/svg" xmlns:xlink="http://www.w3.org/1999/xlink" x="0px" y="0px"
	 viewBox="0 0 103.1 57.5" style="enable-background:new 0 0 103.1 57.5;" xml:space="preserve">
<path d="M102.7,25.9L102.7,25.9l0.3-0.4c0-0.2-0.1-0.3-0.4-0.3v-0.1l-0.1-0.7v-0.1l-0.2,0.1h-0.1v-0.2c0.2,0,0.4-0.2,0.5-0.4
	l-0.1-0.4l0.1-0.3l-0.1-0.4l0.1-0.5l-0.2-0.5v-0.1l0.1-0.1l-0.1-0.3l0.1-5.6l0.1-2.1c-0.3,0-0.4-0.6-0.4-1.9c0-0.6-0.5-1-1.4-1h-5.7
	l-0.5-0.1l-0.6,0.6v0.5l0.1,0.4h-0.1v0.2c-0.9-1.5-2.5-2.5-4.2-2.6c-1.5,0-3,0.5-4.1,1.5c-2.3,1.6-3.5,6.5-3.7,14.6v0.9
	c0,0.4,0,0.7,0,1l-1.4,0.1v-4.2l0.1-1c0.1-3.1-0.4-6.1-1.3-9c-1.3-2.8-3.3-4.2-5.9-4.2c-1.6,0-3.1,0.7-3.9,2h-0.1L69.8,1l-0.4-0.5
	l-0.5,0.1h-2.4l-2.9,0.2h-1.3L62.2,1l-0.3,20.6h-0.1c0-0.2,0-0.4-0.1-0.4l0.1-2.4v-1.2l-0.1-0.8l0.1-0.9L61.7,15v-0.3h0.2l-0.1-0.5
	l0.1-2v-1.6l-0.2-0.1l0.1-0.8H62v-7V2.6h-0.1l-0.2,0.1l0.1-0.5V1.8h-0.2V2c0,0.8,0,1.6,0.1,2.4l-0.1,1.4V7l-0.1,0.4l0.1,0.3h0.2
	l0.1-0.1v0.5L62,8.6l-0.1,0.1L62,9h-0.2v2l0.1,0.6l-0.1,0.5l-0.2,6.3l0.1,0.5l-0.1,1.7v0.1l0.2,4.3l15.3,15.8h0.1
	c1.2-0.8,2.1-2,2.6-3.4c0.7-3,1.2-6,1.4-9H81l0.4,0.5c0,0.3,0.3,0.6,0.9,0.8c0.1,2.9,0.4,5.8,1,8.7c1.1,3.6,3,5.5,5.7,5.5
	c1.2,0,2.3-0.4,3.3-1c1.2-1,1.9-1.6,1.9-1.9h0.1v1.2c0,1-0.1,2-0.3,3c-0.1,0.8-0.8,1.4-1.6,1.3c-0.6,0-1.1-0.3-1.5-0.7
	c-0.3-0.9-0.6-1.4-0.8-1.4c-1.6,0-3.3,0.1-4.9,0.3h-1.5l-0.1,0.1c0,1.3,0.3,2.5,0.7,3.8c1.7,2.8,4,4.2,6.9,4.2H92
	c1.4,0,2.8-0.2,4.2-0.7c2.1-0.9,3.7-2.7,4.5-4.9h0.1l0.1,0.2c-0.3,0.6-0.4,0.9-0.6,0.9c-0.2,0.7-1.2,1.8-3,3.6
	c-0.6,0.2-0.9,0.3-0.9,0.5H96c-1.3,0.4-2.6,0.6-4,0.6h-0.8l-0.8-0.1V53h0.2v0.1h-0.1c-0.5,0-0.8-0.1-0.8-0.3
	c-1.4-0.2-2.7-0.8-3.8-1.7c-0.6,0-1.4-1-2.3-3c-0.1-0.7-0.3-1-0.5-1v-0.2c0-0.7-0.1-1-0.2-1h-0.1c0,1.1,0.3,2.2,0.8,3.1
	c0.7,1.4,1.8,2.5,3.1,3.2h0.2v-0.1L86.8,52c1.3,0.8,2.8,1.2,4.4,1.3l0.4-0.1l1.1,0.1l2.5-0.4c1.2-0.3,2.3-0.8,3.2-1.5
	c1.1-1.1,2-2.3,2.7-3.6c0.4-0.8,0.7-3.2,0.9-7.1h0.1l0.2,0.2v1.2l0.1,0.7l-0.1,0.2l0.1,0.8l-0.1,0.4l0.1,0.2l-0.1,0.6l0.1,0.3h0.1
	l0.4-4l-0.1-0.7v-0.4l0.1-0.8l-0.1-0.1h0.1l-0.1-5.2l-0.1-0.2h0.1l-0.1-0.6l0.1-5.9l-0.1-0.8l0.1-0.5L102.7,25.9l-0.1,0.1
	L102.7,25.9L102.7,25.9z M102.4,14L102.4,14l0.2,0.4v0.3h-0.1L102.4,14L102.4,14z M102.4,20.3L102.4,20.3l0.1,0.2h-0.1V20.3z
	 M102.4,21.5L102.4,21.5l0.2,0.1l-0.2,0.2V21.5z M102.4,23.5L102.4,23.5l0.1,0.3h-0.1V23.5z M62.9,6.8L62.9,6.8L62.9,6.8L62.9,6.8z
	 M63,8.3L63,8.3L63,8.3L63,8.3L63,8.3z M63.2,14.9L63.2,14.9L63.2,14.9L63.2,14.9z M67.3,16L67.3,16L67.3,16L67.3,16
	C67.3,15.9,67.3,16,67.3,16c-0.1,0.1-0.3,0.3-0.5,0.3h-0.1l0,0l0,0h-0.1l0,0c0,0-0.1-0.1-0.2-0.1v-0.1c0.2-0.2,0.5-0.3,0.7-0.4
	l0.2,0.1V16z M69.1,16.1L69.1,16.1h0.2l0.1,0.1L69.1,16.1L69.1,16.1z M69.3,16.2L69.3,16.2L69.3,16.2L69.3,16.2L69.3,16.2z
	 M69.3,15.9L69.3,15.9L69.3,15.9L69.3,15.9z M70.8,15.9L70.8,15.9L70.8,15.9L70.8,15.9z M70.1,16.7L70.1,16.7L70.1,16.7L70.1,16.7
	L70.1,16.7z M69.9,16.8L69.9,16.8L69.9,16.8L69.9,16.8L69.9,16.8z M69.6,15.9L69.6,15.9L69.6,15.9L69.6,15.9L69.6,15.9L69.6,15.9z
	 M69.7,16.1L69.7,16.1L69.7,16.1L69.7,16.1z M69.5,16.3L69.5,16.3L69.5,16.3L69.5,16.3L69.5,16.3z M73.2,30.1L73.2,30.1
	c-0.1-0.2-0.1-0.3-0.2-0.3l0.1-0.5v-0.5L73,28.3c0.1-0.3,0.2-0.5,0.2-0.8v-1.1H73v-0.2h0.2L73,23.8v-0.1h-0.2l-0.1,0.1
	c0-0.2,0-0.3-0.1-0.3h-0.1l0.1,0.9l-0.1,0.3v0.8h0.2l0.1-0.1l0.1,0.3h-0.1l0.1,0.4h-0.1v0.3l0.1,0.1l-0.1,0.1v0.2l0.1,0.1h-0.1
	c0,0.7-0.1,1.3-0.2,2l0.1,0.4l-0.1,0.6l0.2,1.1l-0.5,1.8v0.1l0.1,0.1c-0.3,0.5-0.9,0.8-1.4,0.9h-0.1c-0.9-1.3-1.4-2.8-1.3-4.4
	l0.1-0.6l-0.1-0.4l0.1-0.1l-0.1-0.5V26l-0.1-0.5h0.1v-0.2l-0.1-0.8l0.1-0.7L69.5,23c0-3.6,0.6-5.3,1.7-5.3c0.8,0,1.3,0.5,1.6,1.6
	c0.1,2.6,0.3,3.9,0.6,3.9L73.2,30.1z M82,29.1v-0.2h0.2v0.3C82.2,29.2,82.1,29.1,82,29.1z M93.7,30.8l-0.1,1.3
	c-0.4,2.3-0.9,3.5-1.7,3.5h-0.1c-0.8-0.2-1.2-0.6-1.2-1.1c-0.3,0-0.4-2.1-0.4-6.3L90,27v-1.7c0-1.8,0.1-3.6,0.3-5.4h0.1l0.1,0.4
	l-0.2,0.9l0.2,0.6h-0.1l-0.1,0.1l-0.1,1.8h0.2V24h-0.2v0.4l0.1,0.4l-0.1,0.1c0.1,0.3,0.2,0.6,0.1,0.9v0.8c0.2,0,0.3,0.1,0.3,0.3h0.1
	l0.1-0.1c0-0.3-0.1-0.4-0.2-0.4v-0.2h0.2v-0.1l-0.2-0.2l0.2-0.2v-0.9l-0.1-0.1h-0.1l-0.1,0.1l-0.1-0.2l0.1-0.2v-0.1l-0.1-0.1
	l0.4-3.2l-0.1-0.1c0.1,0,0.1-0.2,0.2-0.7l-0.1-0.3l0.2-0.3v-0.1l-0.1-0.1l0.6-0.7l0.1,0.1l0.9-0.1v0.2c0.3,0.2,0.5,0.5,0.6,0.9
	c0.2,0.1,0.3,0.3,0.4,0.6l-0.1,0.3c0.2,1.1,0.3,2.2,0.3,3.4V24l0.1,0.1l-0.1,0.1V25l0.1,0.8L93.7,26v3v0.3l0.1,0.4h-0.1v0.2V30.8z
	 M100.7,47.1L100.7,47.1l-0.1-0.2h0.1V47.1z M101,46.1L101,46.1l-0.1-0.2h0.1V46.1z M101.5,41.8L101.5,41.8l-0.1-1.1h0.1l0.1,0.8
	L101.5,41.8z M102.3,24.4L102.3,24.4l0.1,0.2h-0.1V24.4z M102.4,29.7l-0.2,0.5h-0.1v-1.4h0.1l0.2,0.5l-0.2,0.3L102.4,29.7z
	 M102.2,28.2V28h0.1L102.2,28.2L102.2,28.2z M102.2,27L102.2,27l-0.2-0.6l0.2-1.3l-0.1-0.1h0.1l-0.1-0.2l0,0h0.2l0.1,0.4v0.6
	l-0.1,0.1c0.1,0,0.1,0.3,0.1,0.8L102.2,27z"/>
<polygon points="61.1,36.3 61.1,39.1 61,40.1 61.6,40.6 63.7,40.6 65.2,40.7 65.4,40.6 61.2,36.3 "/>
<path d="M61.2,29.8V30v1.5c0,0.1,2.5,2.7,7.6,7.9c0.1,0,0.2-0.1,0.2-0.3l0,0v0.1c0.9,1.2,2.2,2,3.6,2.2h0.1v-0.1L61.2,29.8
	L61.2,29.8z"/>
<path d="M60.4,1.2l-0.3-0.4h-1.3l-6.5,0.4h-1.8c-0.1,0-0.8,5.9-2,17.7h-0.1v-0.7c0-1.1,0.2-3.2,0.6-6.1l-0.1-0.9V11H49l-0.1-0.5
	l0.7-6.2h-0.3v0.2h-0.1V4.3l0.3-1.9h-0.3L49,5.1h0.2v0.2c-0.2,0-0.3,0.1-0.3,0.2v0.3h0.2V6h-0.2v1.8c-0.4,2.1-0.7,4.2-0.8,6.3v0.1
	h0.2v-0.5h0.1V14l-0.3,2.3H48v-1l0.1-0.7h-0.2L46.8,3.4c0.1-1.1-0.3-2.2-1.1-3l-0.3,0.1L45,0.3h-1.3l-2.3,0.2
	c-1.1,0-2.2-0.1-3.2-0.3l-0.4,0.1h-1.4c-0.6,0.4-0.9,0.7-0.9,1h0.1l-0.1,0.9L34.6,9v0.1l0.1,0.1c0,0.7-0.2,1.4-0.4,2.1v0.1l0.1,0.1
	c-0.2,0-0.3,0.9-0.4,2.7h-0.1l-0.1-0.1L32.4,1.2c0-0.3-0.2-0.7-0.8-1.1l-1.5,0.1h-0.2L29.2,0l-0.1,0.1H29L28.9,0l-3.4,0.2V0.1
	L25.4,0l-0.7,0.1h-2.5l-0.7,0.8l1.2,6.4l5.8,31.3l11.4,0.1L41,31h0.1l1.4,7.7L54,38.8l6.6-37.5L60.4,1.2L60.4,1.2z M48.3,36.1
	c-0.1,0.1-0.2,0.1-0.2,0.2s-0.1,0.1-0.3,0.2c-0.2,0.1-0.2-0.1-0.2-0.1c0-0.2,0-0.3,0.1-0.5c0.1-0.1,0.3-0.1,0.4-0.1
	C48.3,35.8,48.4,35.9,48.3,36.1C48.4,36.1,48.3,36.1,48.3,36.1z M50.8,12.8c0-0.2,0.1-0.3,0.2-0.5c0.1-0.1,0.3-0.1,0.4-0.1
	c0.1,0,0.1,0.1,0.1,0.2c0,0,0,0.1-0.1,0.1c-0.1,0.1-0.2,0.1-0.2,0.2s-0.1,0.1-0.3,0.1S50.8,12.8,50.8,12.8z M49.4,28.7
	c-0.6,0-0.3-0.5-0.2-0.8s0.2-0.2,0.4-0.1s0-0.2,0.1-0.4s0.6,0.2,0.8,0.3s0.2,0.2-0.3,0.6C50,28.5,49.7,28.7,49.4,28.7z M51.5,33
	c-0.2,0.1-0.1,0.1-0.5,0.5s-0.7,0.1-0.8-0.4c0-0.5,0.2-0.4,0.4-0.8c0.3-0.5,0.5-0.3,0.5-0.3c0.3,0.1,0,0.2,0.3,0.5
	S51.7,32.9,51.5,33z M51.9,24.8c-0.1,0.1-0.3,0.2-0.5,0.2c-0.4,0-0.2-0.3-0.1-0.5s0.1-0.1,0.2-0.1s0-0.1,0.1-0.2s0.4,0.1,0.5,0.2
	S52.1,24.5,51.9,24.8z M51.4,22.5c-0.1,0-0.1,0-0.2,0c-0.1,0-0.3,0-0.4,0c-0.3-0.1-0.4-0.1-0.5-0.2s-0.2-0.2-0.2-0.4
	c0-0.1-0.1,0-0.2-0.1s-0.3-0.2-0.4-0.4c0-0.2,0.1-0.4,0.3-0.5s0.3,0,0.4-0.1c0.1-0.1,0.2-0.1,0.3-0.1s0.1,0,0.2,0c0.2,0,0.4,0,0.6,0
	c0.2,0,0.7,0,0.7,0.1s0.1,0,0.2,0.1s0,0.1,0.1,0.2s0,0.1,0.1,0.1s0.1,0.1,0,0.2c-0.1,0.2-0.2,0.3-0.4,0.3
	C51.9,22,51.7,22.4,51.4,22.5z M53.6,35.3c-0.2,0.1-0.2,0.2-0.1,0.5c0.1,0.3-0.1,0.5-0.7,0.7s-0.5-0.3-0.5-0.3
	c0.1-0.2,0.1-0.4,0.3-0.6c0.6-0.7,0.2-0.4,0.5-0.8c0.2-0.4,0.5-0.2,0.7,0S53.8,35.2,53.6,35.3z M54.1,29.9c-0.1,0.1-0.4,0.4-0.4,0.2
	c0,0,0-0.2-0.1-0.2c-0.2,0-0.3-0.2-0.4-0.4c0-0.3-0.1-0.3,0-0.4s0.1-0.3,0.2-0.3s0.4-0.2,0.6,0.3S54.2,29.7,54.1,29.9L54.1,29.9z
	 M54.4,16.3c-0.4,0.4-0.6,0.1-0.6,0.1c-0.3,0.3-0.5,0.1-0.5,0.1c-0.4-0.4,0-0.8,0.2-0.9s0.2,0.1,0.1-0.4c-0.1-0.4,0.1-0.8,0.5-1
	c0.3-0.2,0.6-0.1,0.8,0.1c0.2,0.2,0.2,0.3,0,0.6s-0.1,0.1,0.2,0.4S54.9,15.9,54.4,16.3z M58.1,8.8c-0.2,0.2-0.5,0.4-0.8,0.5
	c-0.4,0.1-0.8,0.7-1.5,0.7c-0.1,0-0.2,0-0.3,0.1c-0.3,0.1-0.6,0.1-0.8,0c-0.3,0-0.6-0.1-0.9-0.2c-0.2-0.1-0.3-0.3-0.4-0.4
	c0-0.1-0.1-0.1-0.4-0.2S52.3,9,52.2,8.8s0.2-0.5,0.6-0.6C53.1,8,53.3,8,53.6,8c0.2-0.1,0.3-0.1,0.5-0.1c0.3,0,0.2,0.1,0.4,0
	c0.4,0,0.8,0,1.2,0c0.5,0,1.3,0,1.4,0.1c0.1,0.1,0.2-0.1,0.4,0.1c0.2,0.2,0,0.2,0.2,0.3s0.1,0.1,0.2,0.2S58.3,8.6,58.1,8.8L58.1,8.8
	z M58.6,2.5c-0.2,0.1-0.2,0.2-0.1,0.5s0,0.5-0.7,0.7s-0.5-0.3-0.5-0.3c0.1-0.2,0.1-0.4,0.3-0.6c0.6-0.7,0.2-0.4,0.5-0.8
	s0.5-0.2,0.7,0S58.8,2.3,58.6,2.5L58.6,2.5z"/>
<path d="M27.2,57.3l-0.6-2.7H27l0.3,1.3c0.1,0.3,0.1,0.7,0.2,0.9l0,0c0-0.3,0.1-0.6,0.2-0.9l0.4-1.3h0.4l0.3,1.3
	c0.1,0.3,0.1,0.6,0.2,0.9l0,0c0-0.3,0.1-0.6,0.2-0.9l0.4-1.3h0.3l-0.7,2.7h-0.4l-0.3-1.4c-0.1-0.3-0.1-0.6-0.2-0.9l0,0
	c0,0.3-0.1,0.5-0.2,0.9l-0.4,1.4H27.2z"/>
<path d="M33.1,56.2l-0.2-0.8c-0.1-0.2-0.1-0.3-0.1-0.5l0,0c0,0.2-0.1,0.3-0.1,0.5l-0.3,0.8H33.1z M32.3,56.5L32,57.3h-0.4l0.9-2.7
	H33l0.8,2.7h-0.4l-0.3-0.8H32.3z"/>
<path d="M83.5,57.3c-0.3,0.1-0.5,0.1-0.8,0.2c-0.4,0-0.7-0.1-1-0.4c-0.2-0.3-0.4-0.6-0.4-1c0-0.7,0.5-1.3,1.3-1.4c0.1,0,0.1,0,0.2,0
	c0.2,0,0.4,0,0.6,0.1l-0.1,0.3c-0.1,0-0.3-0.1-0.5-0.1c-0.6,0-1,0.4-1,1c0,0,0,0,0,0.1c0,0.6,0.4,1,0.9,1.1h0.1c0.2,0,0.3,0,0.4-0.1
	v-0.8h-0.5V56h0.9L83.5,57.3z"/>
<path d="M87.2,56.3l-0.3-0.8L86.8,55l0,0c0,0.2-0.1,0.3-0.1,0.5l-0.3,0.8H87.2z M86.3,56.6L86,57.4h-0.4l0.9-2.7H87l0.9,2.7h-0.4
	l-0.3-0.8C87.2,56.6,86.3,56.6,86.3,56.6z"/>
<path d="M92.3,56.3c0-0.4,0-0.8,0-1.2l0,0c-0.1,0.3-0.2,0.7-0.3,1l-0.5,1.3h-0.2l-0.4-1.3c-0.1-0.4-0.2-0.7-0.3-1l0,0
	c0,0.3,0,0.8-0.1,1.2l-0.1,1.1h-0.3l0.2-2.7h0.4l0.4,1.3c0.1,0.3,0.2,0.6,0.3,0.9l0,0c0.1-0.3,0.2-0.6,0.3-0.9l0.5-1.3h0.4l0.2,2.7
	h-0.3L92.3,56.3z"/>
<polygon points="95.1,57.5 96.6,57.5 96.6,57.2 95.4,57.2 95.4,56.2 96.4,56.2 96.4,55.9 95.4,55.9 95.4,55.1 96.5,55.1 96.5,54.8 
	95.1,54.8 "/>
<path d="M98.8,57.1c0.2,0.1,0.4,0.2,0.6,0.2c0.3,0,0.6-0.2,0.6-0.4c0-0.3-0.1-0.4-0.5-0.5s-0.7-0.4-0.7-0.8c0-0.4,0.4-0.7,0.8-0.7
	l0,0c0.2,0,0.4,0,0.6,0.1l-0.1,0.3c-0.2-0.1-0.3-0.1-0.5-0.1c-0.4,0-0.5,0.2-0.5,0.4s0.2,0.4,0.5,0.5s0.7,0.4,0.7,0.8
	s-0.3,0.8-0.9,0.8c-0.2,0-0.5-0.1-0.7-0.2L98.8,57.1z"/>
<polygon points="35.8,55 36.6,55 36.6,57.3 36.9,57.3 36.9,55 37.7,55 37.7,54.7 35.8,54.7 "/>
<polygon points="39.9,57.3 41.3,57.3 41.3,57 40.2,57 40.2,56.1 41.2,56.1 41.2,55.8 40.2,55.8 40.2,55 41.3,55 41.3,54.7 
	39.9,54.7 "/>
<path d="M44,55.9h0.3c0.4,0,0.6-0.2,0.6-0.5s-0.2-0.5-0.6-0.5c-0.1,0-0.2,0-0.3,0V55.9z M43.7,54.7c0.2,0,0.4-0.1,0.6-0.1
	c0.3,0,0.5,0.1,0.8,0.2c0.1,0.1,0.2,0.3,0.2,0.5c0,0.3-0.2,0.6-0.5,0.7l0,0c0.2,0.1,0.4,0.3,0.4,0.5s0.1,0.5,0.2,0.7H45
	c-0.1-0.2-0.1-0.4-0.2-0.6c-0.1-0.4-0.2-0.5-0.5-0.5H44v1.2h-0.3V54.7z"/>
<path d="M50.6,57.1h0.3c0.3,0,0.7-0.1,0.7-0.5s-0.3-0.5-0.7-0.5h-0.3V57.1z M50.6,55.8h0.3c0.3,0,0.6-0.2,0.6-0.4S51.3,55,50.9,55
	c-0.1,0-0.2,0-0.3,0C50.6,55,50.6,55.8,50.6,55.8z M50.2,54.7c0.2,0,0.4,0,0.6,0c0.3,0,0.5,0.1,0.7,0.2c0.1,0.1,0.2,0.3,0.2,0.5
	c0,0.3-0.2,0.5-0.5,0.6l0,0c0.3,0.1,0.5,0.3,0.5,0.7c0,0.2-0.1,0.4-0.2,0.5c-0.3,0.2-0.6,0.3-0.9,0.2c-0.2,0-0.4,0-0.5,0L50.2,54.7z
	"/>
<path d="M54.4,56.1c0,0.6,0.3,1.1,0.8,1.1s0.8-0.5,0.8-1.1S55.7,55,55.2,55S54.4,55.5,54.4,56.1 M56.4,56.1c0.1,0.7-0.4,1.3-1.1,1.4
	c0,0-0.1,0-0.2,0c-0.7,0-1.2-0.6-1.2-1.2c0-0.1,0-0.1,0-0.2c-0.1-0.7,0.4-1.3,1.1-1.4h0.1c0.7,0,1.2,0.6,1.2,1.2
	C56.4,55.9,56.4,56,56.4,56.1"/>
<path d="M59,54.7v1.6c0,0.6,0.2,0.8,0.6,0.8s0.6-0.3,0.6-0.8v-1.6h0.3v1.5c0,0.8-0.4,1.2-1,1.2s-0.9-0.3-0.9-1.1v-1.6
	C58.6,54.7,59,54.7,59,54.7z"/>
<polygon points="63.1,57.4 64.5,57.4 64.5,57.1 63.4,57.1 63.4,54.7 63.1,54.7 "/>
<path d="M67.1,57.1h0.3c0.5,0.1,1-0.3,1.1-0.9c0-0.1,0-0.2,0-0.3c0-0.5-0.3-1-0.9-1h-0.1c-0.1,0-0.3,0-0.4,0V57.1z M66.8,54.8
	c0.2,0,0.5-0.1,0.7-0.1c0.4,0,0.7,0.1,1,0.3c0.3,0.3,0.4,0.6,0.4,1s-0.1,0.7-0.4,1s-0.7,0.4-1.2,0.4c-0.2,0-0.4,0-0.6,0L66.8,54.8z"
	/>
<polygon points="71.2,57.4 72.6,57.4 72.6,57.1 71.5,57.1 71.5,56.2 72.5,56.2 72.5,55.9 71.5,55.9 71.5,55 72.6,55 72.6,54.8 
	71.2,54.7 "/>
<path d="M75.3,56h0.3c0.3,0,0.6-0.2,0.6-0.5l0,0c0-0.3-0.2-0.5-0.6-0.5c-0.1,0-0.2,0-0.3,0V56z M74.9,54.8c0.2,0,0.4-0.1,0.7-0.1
	c0.3,0,0.5,0,0.8,0.2c0.1,0.1,0.2,0.3,0.2,0.5c0,0.3-0.2,0.6-0.5,0.7l0,0c0.2,0.1,0.4,0.3,0.4,0.5s0.1,0.5,0.2,0.7h-0.3
	c-0.1-0.2-0.1-0.4-0.2-0.6c-0.1-0.4-0.2-0.5-0.5-0.5h-0.3v1.2h-0.3L74.9,54.8z"/>
<path d="M30.2,52.6h-1.1l-0.9-2.2h-0.8v2.2h-1v-4.9H29c0.7,0,1,0.3,1,0.8v1c0,0.4-0.2,0.8-0.6,0.8h-0.1l0,0L30.2,52.6z M27.4,49.7
	h1.3c0.1,0,0.2-0.1,0.2-0.2l0,0v-0.7c0-0.1-0.1-0.2-0.2-0.2l0,0h-1.3V49.7z"/>
<path d="M37.8,51.6l-0.3,1h-1.1l1.5-4.9h1.3l1.5,4.9h-1.2l-0.3-1H37.8z M39.1,51l-0.6-2.2L37.9,51H39.1z"/>
<path d="M47,52.6v-4.9h3.2v0.8c-0.1,0-0.2,0-0.2,0h-2v1.2h1.4h0.2v0.8h-0.2H48v2.2L47,52.6z"/>
<path d="M57.6,47.7v4.9h-1v-4.9H57.6z"/>
<path d="M65.6,50.4v2.2h-1v-4.9h1v2h0.5c0.2,0,0.3-0.1,0.4-0.3l0.7-1.7h1.1l-0.9,1.9c-0.1,0.2-0.3,0.3-0.5,0.4
	c0.2,0.1,0.4,0.2,0.5,0.4l1,2.1h-1.2l-0.8-1.9c-0.1-0.2-0.2-0.3-0.4-0.3L65.6,50.4z"/>
<path d="M76,47.7v4.9h-1v-4.9H76z"/>
<path d="M25.6,45.8c0.2,0.1,0.1-0.1,0.2-0.1C25.6,45.7,25.5,45.6,25.6,45.8z"/>
<path d="M25.8,46.2c0,0,0.4-0.1,0.5-0.3C26,45.8,25.8,46,25.8,46.2z"/>
<path d="M27.1,45.7L26.7,46C26.9,46,27.1,45.9,27.1,45.7z"/>
<path d="M29.5,45.8c0,0.1-0.1,0.2,0.1,0.2C29.6,45.8,29.5,45.9,29.5,45.8z"/>
<path d="M43,45.8c0,0.2,0.1,0.2,0.1,0.2C43,45.9,43.2,45.8,43,45.8z"/>
<path d="M43.6,46.1c0.2,0.1,0.2-0.1,0.2-0.1C43.7,46,43.6,45.9,43.6,46.1z"/>
<path d="M44,45.8L43.8,46C44,46,44,46,44,45.8z"/>
<path d="M44.5,46.3c0,0,0.2,0,0.1-0.2C44.4,46.1,44.5,46.2,44.5,46.3z"/>
<path d="M45.9,45.8c0.2,0,0.3,0,0.3-0.1S46,45.7,45.9,45.8z"/>
<path d="M46.3,45.4c0,0.3,0.1,0.3,0.2,0.5C46.7,45.7,46.8,45.6,46.3,45.4z"/>
<path d="M46.6,46.1c0.2,0.1,0.2-0.1,0.2-0.1C46.7,46.1,46.6,45.9,46.6,46.1z"/>
<path d="M56,41.1l-0.4,0.1c0,0.1,0,0.3,0.1,0.4C55.9,41.5,56.1,41.3,56,41.1z"/>
<path d="M56,41.2v0.2c0.4,0.1,0.4-0.2,0.5-0.2H56z"/>
<path d="M58.7,40.6c-0.1,0.1-0.2-0.1-0.2,0.1C58.7,40.8,58.6,40.7,58.7,40.6z"/>
<path d="M59.2,41.4c1.3-0.2-0.2-1.1-0.3-0.4c0.2,0,0.3,0,0.5,0.1C59.3,41.3,59.1,41.1,59.2,41.4z"/>
<path d="M27.2,41.4C26.8,41.4,27.2,41.6,27.2,41.4z"/>
<path d="M26.7,41.5c-0.1,0-0.2-0.1-0.2,0.1C26.7,41.7,26.6,41.6,26.7,41.5z"/>
<path d="M26.9,45.3c-0.1-0.2-0.1,0-0.1-0.3c-0.2-0.2-0.1,0-0.3,0.1c0,0.2,0.1,0.3,0.1,0.5C26.7,45.5,26.8,45.4,26.9,45.3z"/>
<path d="M26.7,43.9c0,0,0.2-0.1,0.2-0.3h-0.2V43.9z"/>
<path d="M27,45.3c0,0,0-0.2-0.2-0.1C26.8,45.3,26.9,45.2,27,45.3z"/>
<path d="M27.5,45.4c0.1-0.1,0.1-0.4,0-0.5c0.2,0,0.2-0.2,0.1-0.4C27.1,44.4,27.5,45.3,27.5,45.4z"/>
<path d="M27.9,44c0-0.2,0.3-0.1,0-0.3C27.5,43.8,27.8,43.8,27.9,44z"/>
<path d="M28.3,43.1c0,0,0.1,0,0.1-0.2C28.2,42.8,28.3,42.9,28.3,43.1z"/>
<path d="M28.2,44.8c0,0,0,0.2,0.2,0.1S28.4,44.8,28.2,44.8z"/>
<path d="M28.2,45.5c0.3,0.1,0.1-0.1,0.2-0.2C28.3,45.4,28.2,45.2,28.2,45.5z"/>
<path d="M28.7,43.9h-0.4l0.2,0.2C28.7,44,28.8,44.1,28.7,43.9z"/>
<path d="M28.4,44.8c0.2,0,0.1-0.1,0.2-0.1C28.5,44.7,28.4,44.6,28.4,44.8z"/>
<path d="M28.7,45.6c0.2,0,0.2-0.2,0.3-0.3C28.9,45.4,28.7,45.3,28.7,45.6z"/>
<path d="M29.6,43.2c0-0.2-0.1-0.1-0.1-0.2C29.6,43.1,29.4,43.2,29.6,43.2z"/>
<path d="M41.9,45.9c0-0.1,0.1-0.3,0.1-0.4c-0.3,0.3-0.9,0.6-0.8-0.1c-0.1-0.4-0.7-1-1.2-0.2h0.3c-0.3,0.3-0.6,0.4-1,0.3
	c0.1-0.1,0.1-0.2,0.2-0.3c-0.3,0.2-0.7,0.4-1.1,0.6v-0.4c-0.2,0-0.3,0.1-0.6,0c0.2,0.4,0,0.6-0.4,0.7c0.4-0.1,0.7-0.2,0.8-0.4
	c-1.4,1,1,0.9,1.7,0.7c-0.1-0.1-0.1-0.3-0.2-0.4c0.1,0,0.2-0.1,0.3-0.1v0.2c0.1-0.1,0.3-0.1,0.4-0.1c-0.5,0.6-0.1,1,0.7,0.8
	s1.2-0.8,1.4-0.2C42.7,46.2,42.4,45.9,41.9,45.9z"/>
<path d="M39.1,45.3c0.1-0.3-0.1-0.1-0.2-0.2C39,45.2,38.8,45.4,39.1,45.3z"/>
<path d="M40,44c0,0.2,0.2,0.2,0.3,0.3C40.2,44.2,40.2,44.1,40,44z"/>
<path d="M41.3,45.2c0.1,0.2,0.3,0.3,0.6,0.3c0-0.2-0.2-0.4-0.4-0.4C41.5,45.1,41.4,45.1,41.3,45.2z"/>
<path d="M41.9,44.1h-0.2c0,0.2-0.1,0.3-0.1,0.5c0.1,0,0.2-0.2,0.3-0.2S41.9,44.2,41.9,44.1z"/>
<path d="M41.9,43.9c0.2,0,0.4,0,0.2-0.2L41.9,43.9z"/>
<path d="M42,44.5c0.3,0,0.5,0,0.8-0.1C42.4,43.9,42.1,43.8,42,44.5z"/>
<path d="M42.5,45.3h-0.2c0.1,1,0.7,0.3,0.7,0c-0.2,0-0.4,0.1-0.5,0.2V45.3z"/>
<path d="M43.2,43.9c0.2,0,0-0.1,0.1-0.2C43.3,43.7,43.2,43.7,43.2,43.9z"/>
<path d="M44,45.6c-0.5-0.7-0.7,0-0.7,0.6c0.2,0,0.1-0.1,0.2-0.2C43.5,45.7,43.7,45.4,44,45.6z"/>
<polygon points="45.4,44.7 45.2,44.7 45.4,44.9 "/>
<path d="M46.1,45.1c-0.2,0-0.7,0.2-0.8,0.2c-0.1,0.2-0.2,0.5-0.2,0.7c0.1,0,0.2,0.1,0.4,0.1c0-0.2-0.1-0.3-0.1-0.5l0.1,0.1
	C45.9,45.7,46.1,45.4,46.1,45.1z"/>
<path d="M45.4,43.9c0.1,0.1,0.2,0.2,0.3,0.2C45.6,44,45.5,43.9,45.4,43.9z"/>
<path d="M46.5,43.9c-0.1,0-0.2-0.1-0.2,0.1C46.5,44.1,46.5,43.9,46.5,43.9z"/>
<path d="M46.4,45.1c0.1,0.2,0.3,0.3,0.5,0.4v-0.4C46.8,45.1,46.6,45.1,46.4,45.1z"/>
<path d="M53.2,44.4c-0.2,0-0.4,0.1-0.5,0.2c-0.1-0.2-0.2-0.2-0.5-0.3s-0.3,0.5-0.3,0.6c-0.3,0.2-0.7,0.2-0.9-0.1c0,0,0-0.1-0.1-0.1
	V45c-0.2,0-0.3-0.3-0.4-0.3c0.1,0,0.2-0.1,0.3-0.1c-0.5-0.5-0.8,0.6,0,0.6c-0.4-0.1-0.8,0-1.2,0.3c0-0.3-0.1-0.3,0-0.6
	c-0.1,0.2-0.2,0.5-0.2,0.7h-0.2c0-0.1,0.1-0.2,0.1-0.3H49c0,0.2,0.1,0.2,0.1,0.3c-0.5-0.1-1-0.3-1.4-0.2c-0.1-0.1-0.4-0.3,0-0.2
	c-0.2-0.2-0.4-0.3-0.6,0.3c0.2,0,0.2-0.1,0.3-0.1c0.2,0.4,0.7,0.7,1,0.2v0.3c0.4-0.1,0.5,0,0.9-0.2c0,0.1,0.1,0.3,0.1,0.4l0.4-0.3
	v0.3c0.1-0.2,0.2-0.4,0.2-0.6c0.4,0,0.4,0.7,1.2,0.5s0.8-0.4,0.1-0.6c0-0.1,0-0.2,0.1-0.2c0.2,0.3,0.3,0.1,0.5,0.1
	c0,0.1,0.1,0.1,0.2,0.1c-0.1,0.2-0.1,0.3-0.2,0.5c-0.1,0.2,0.3,0.1,0.3,0.1c-0.1-0.1-0.1-0.3-0.1-0.4c0.1,0,0.3,0.1,0.5,0
	c-0.1,0.1-0.1,0.2-0.3,0.3c0.6,0,0.5-0.7,1.1-0.9c-0.1,0.1-0.1,0.3-0.1,0.4c0.1-0.1,0.1-0.1,0.2,0s0.4-0.1,0.7-0.1
	C54.1,44.4,53,45.2,53.2,44.4z"/>
<path d="M48.2,44.5l0.2-0.2C48.2,44.3,48.2,44.3,48.2,44.5z"/>
<path d="M50,44.9c0.3-0.1,0.3-0.2,0.1-0.4L50,44.9z"/>
<path d="M50.3,44.2c0-0.1,0.2-0.1,0.2-0.3C49.9,43.9,50.3,44,50.3,44.2z"/>
<path d="M50.3,43.8c0.3,0.1,0.1-0.1,0.2-0.2C50.4,43.7,50.2,43.5,50.3,43.8z"/>
<path d="M51,43.3c0-0.2-0.1,0-0.2-0.1C50.8,43.2,50.8,43.3,51,43.3z"/>
<path d="M51.4,44.2c0,0.1,0.1,0.2,0.2,0.3C51.6,44.4,51.5,44.2,51.4,44.2z"/>
<path d="M53.6,45.9c0.8-0.1,0.2-0.3,0.3-0.5C53.7,45.5,53.6,45.7,53.6,45.9z"/>
<path d="M56,44.9c0,0.2,0.1,0,0.2,0.1c-0.3,0.2-0.4,0.4-0.6-0.1c0.2-0.1,0.1,0,0.2-0.2c-0.1,0-0.3,0-0.4,0c0.1,0.2,0.1,0.4,0.2,0.6
	c-0.5,0.1-1,0-1.2,0.3c0.2,0.1,0.2,0.3,0.5,0.2c0-0.1,0-0.2,0-0.3c0.2,0.2,1.7,0.2,2-0.4C56.9,44.8,56.2,44.9,56,44.9z"/>
<path d="M54.6,45.1c0.1-0.2-0.1-0.2-0.1-0.2C54.6,45,54.4,45.1,54.6,45.1z"/>
<path d="M55.7,44.1c0.2,0,0-0.1,0.1-0.2C55.8,44,55.7,43.9,55.7,44.1z"/>
<path d="M56.2,44.7c0.1-0.1,0.2-0.3,0.2-0.3C56.2,44.6,56,44.4,56.2,44.7z"/>
<path d="M56.3,42.1c-0.1,0.2,0.1,0.1,0.1,0.2C56.4,42.2,56.5,42.1,56.3,42.1z"/>
<path d="M57.1,42.8c-0.2,0.1-0.3-0.1-0.3,0.1C57,43.2,56.9,42.9,57.1,42.8z"/>
<path d="M57,43.9l-0.2-0.2C56.8,44,56.8,44.2,57,43.9z"/>
<path d="M57.1,41.7c-0.1,0-0.2-0.1-0.2,0.1C57.1,41.9,57,41.8,57.1,41.7z"/>
<path d="M57.7,42L57.7,42c0.2,0,0.4-0.1,0.7-0.2h-0.3c0-0.1,0.1-0.2,0.1-0.3H58c0,0.1,0,0.2,0,0.3c-0.2-0.1-0.3-0.2-0.6-0.2
	c0,0.1,0,0.1,0,0.2C57.8,41.7,57.6,41.9,57.7,42z"/>
<path d="M58.1,42.2c-0.1,0.2,0.1,0.2,0.1,0.2C58.1,42.3,58.3,42.2,58.1,42.2z"/>
<path d="M58.5,42.1c0.1,0,0.3-0.1,0.3-0.1c0,0.2,0,0.2,0.2,0.2c-0.1-0.1,0-0.4-0.5-0.3C58.5,41.9,58.5,42,58.5,42.1z"/>
<polygon points="40.1,36.2 40,36.9 41.1,36.1 "/>
<path d="M81.2,42.5c-2.1,0.1-4.6-0.4-6.6,0c-2.3-0.6-5.9,0-8.5,0.1l-4,0.1c-0.9,0-2.1,0.2-1.5-1c-1.5,0-1.6-0.2-1.6,1.4
	c-0.8-0.1-1.6,0-2.5,0.1v-0.3c-0.9,0.7-1.9-0.1-2.8,0.4c0-0.1,0-0.2,0.1-0.3c-0.1,0-0.2,0-0.2-0.1c-0.2,0.1-0.3,0.4-0.3-0.2
	c0.5,0.2,1.1,0.1,1.5-0.2v0.3c0.3,0.1,0.6,0,0.9-0.2c0-0.5-0.5-0.2,0-0.6c-0.3,0-0.5,0.1-0.8,0.2c1-0.9-0.6-1.3-1.5-1
	c0-0.5-8.6-0.7-16.3-0.7c0.4-0.6,1.2-1.1,3.2-1.2l-0.8-0.5l0,0h-4.9c-0.1,0.6-0.1,1.1,0,1.7h-3.3L30,38.8h-2v-2.5
	c-0.8-0.5-1.7-0.7-2.6-0.6c0,0-0.8-2.3-0.9-2.8s-0.6-2.4,0.9-3.1c0.5-0.2,1-0.2,1.5,0l-0.6-3.2c-0.6-0.1-1.3-0.1-2.2-0.2
	c0,0,1-0.4,2-1l-1.7-9.2c-1.1-0.2-2.2-0.4-3.3-0.5c0,0-3.7,0.1-4-0.4s0.2-1.6,2.2-2.3c1.4-0.5,2.9-0.6,4.4-0.3l-0.5-2.6
	c-1.7-0.2-3.4,0-5,0.6c-1.3,0.6-2.5,1.5-3.5,2.7L13.8,11L13,12.4l-2.2-2.3l0.9,4.7c-2.2,0.1-4.3,0.8-6.1,1.9c-3.4,2-4.6,5.7-5.2,8.4
	c-0.6,2.6-0.5,5.4,0.1,8l1.6-3.4l1,1.8c0,0,0.1-5.3,1-7.8s2.9-5.4,5-6.1s2.4,0.1,2.4,0.2s-0.4,1-1.8,2.3s-4.6,5.5-3.5,8.3
	c0.6,1.7,2.3,2.8,4.1,2.5c0.8-0.2,4.4-1.2,4.4-1.2c-1.4,0.8-2.5,2.2-3,3.8c-0.7,2.6,0.1,6.3-0.9,7.7c-1.1,1.3-2.5,1.5-3.5,0.6
	c-1.3-1.4-2.5-3.1-3.3-5L3.7,39l-2.4-2c0,0,1.9,5.8,4.3,7.8c1.7,1.3,4,1.3,5.8,0.2c1.8-1.5,2.9-3.7,2.9-6c0.1-3,0.6-5.2,2.1-5.6
	s2.4,1.4,2.7,1.8c0.4,0.4,1.4,2.7,1.4,2.7c-0.9,0.9-1.3,2.2-1.3,3.5c0.1,2.1,1,3.8,1.1,5.1s0,1.8-0.3,1.8c-0.7,0.4-1.8-0.8-2.8-1.2
	c-0.9-0.5-2.3-1.1-4.1,0.7L11,50.2l3.6-1.2l-0.3,2.1c0,0,1.6-1.8,2.8-1.2s2.7,3.2,4.6,2.4s1.8-5.2,1.8-6.5S23,42,24,41.6
	s1.9,1,1.9,1s-0.3-1.3,0.2-1.9c0.3,0.4,0.7,0.8,1.2,0.8c-0.1,0.4-0.3,0.7-0.7,0.8c-0.2,0.8,0.5,0.6,1.1,0.5
	c-0.2-0.3-0.1-0.7-0.3-0.9c0.5,0,0.9,0,1.4-0.1L29,42l-0.1-0.1c-0.2,0.2-0.4,0.4-0.5,0.7c0.5,0.1,0.9,0.1,1.4,0.2
	c0.2,0.3,0.5,0.5,0.6,0.8c-0.1,0,0,0.1-0.1,0.2c0,0,0.1,0,0.1-0.2l0,0c0.3,0.3,0.5,0.6,0.9,0.9c-0.3,0.3-0.2,0.2-0.4,0.7L30.3,45
	c0.1-0.4,0-0.8-0.3-1c-0.1-0.1-0.9-0.7-0.9-0.7c-0.7,0-0.1,0.5-0.1,0.7c-0.4,0-0.5,0.6-0.7,0.7c0.5-0.2,0.4-0.4,0.8-0.5
	c0.1,0.3,0,0.4,0.6,0.1c-0.7,0.7-0.4,1.6-0.2,0.4h0.2c0,0.1,0,0.3,0.1,0.4c-0.1,0.3-0.2,0.9-0.2,0.6c0.4-0.2,0.7-0.7,1-0.2
	c-0.1,0-0.2-0.1-0.3-0.1c0,0.4,1,0.3,1,0.3l0.1,0.1c0,0.1-0.1,0.3,0,0c0.6,0.1,1.3,0.2,1.9,0.1c0.5,0.2,1.1,0.3,1.6,0.3l0,0l0.3-0.1
	c0.1,0,0.2,0,0.3-0.1l0,0c0.1,0,0.2,0,0.3,0c0,0,0-0.1,0-0.2c0.1,0,0.2-0.1,0.2-0.2c0,0.4,0.4,0.7,0.7,0.2c-0.1,0-0.3,0.1-0.3,0.1
	c0.1-0.3,0.1-0.1,0-0.4h0.2c-0.1,0.2,0.1,0.1,0.1,0.2c0-0.1,0.1-0.2,0-0.2c0.1,0,0-0.1,0.2,0.1c0.4-0.1,0.4-0.1,0.6-0.4
	c-0.4,0.1-0.7,0.1-1.1,0.1c0.4-0.6,0.7-1.2,0.7-1.9c0.4,0.1,0.7,0.1,1.1,0c0.4,0.1,0.9,0.1,1.3-0.2v0.3c0.2-0.1,0.3-0.2,0.5-0.3
	c0,0.5,0.2,0.4,0.3,0.7c0.4-0.2,0.8-0.4,1.1-0.7c0,0.2-0.1,0.2-0.1,0.3c0.4-0.2,0.9-0.3,1.4-0.3c0.2,0.3,0,0.3-0.1,0.5
	c0.1-0.1,0.3-0.1,0.4-0.1c0-0.1-0.2-0.7-0.2-0.7s0.4,0,0.6,0c0,0.1-0.1,0.3-0.1,0.4c0.2-0.2,0.2,0.1,0.3-0.4h0.2c0,0.5,0.2,0,0.5,0
	c-0.3,0.3-0.5,0.7-0.1,0.9c0.2-0.2,0.3-0.3,0.5-0.5c-0.2,0-0.3-0.1-0.3-0.3c0.5,0,0.6,0.3,0.4,0.8c0.4-0.2,0.6-0.5,1-0.4
	c-0.3-0.4-0.1-0.2-0.6,0L45,43.2c0.2-0.1,0.4-0.3,0.6-0.4v0.4C46,43,46,43.6,46,44.1c0,0,0.3-0.2,0.4-0.2c0-0.3-0.2-0.5,0.5-0.5
	c0,0.2,0,0.3-0.1,0.5c0.2,0.1,0.4,0.1,0.6-0.1c-0.4,0.8,0.6,0.1,1.1,0c0,0.8,0.1,0.4,0.4,0.5l0.1,0.3c0.5,0,1.1-0.3,0.9-0.9H50
	c0.1-0.2-0.2-0.3,0.4-0.3c0.1-0.3-0.2-0.3,0.3-0.2c0-0.2,0.1-0.3,0.1-0.5c0.4,0.2,0.7,0.3,1-0.1c0.1,0,0.5,0.9,0.5-0.1
	c1.8,1.9-1.9-0.3-1.4,1.6c0.5-0.2,1-0.3,1.6-0.3c0.4,0.3,1.4-0.1,1.9,0.8v-0.3c0.2,0.1,1.6,0.3,1.1-0.3c-0.2-0.2-1-0.1-1.4-0.3
	c0.1,0.3-0.1,0.1-0.2,0.2c0.1-0.1,0.1-0.2,0.2-0.3c-0.2,0.1-0.4,0-0.5-0.2c0.8,0,2-0.3,2.3,0.3c0-0.1,0-0.2-0.1-0.3
	c0.6,0.6,2.7-0.7,3.3,0.1c0-0.1,0-0.1,0-0.2c0,0.5,0,1,0,1.5c-0.2-0.1-0.3,0-0.3,0.2c0.6,0.2,0.3,2.7,0.7,0.7c0-0.4,0-0.8,0.1-1.2
	c0.2-0.6,1.3-0.6,1.8-0.9s1.5-0.3,1.3,0.4c0.2,0.1,0.3-0.1,0.4-0.1c0.3,0.1,0.7,0.1,1-0.1c0.3,0,0.3,0.4,0.3,0.6
	c-0.2-0.2-0.2-0.1-0.6-0.2c0.5,0.4,0.9,0.8,1.4,1.2c0-0.9,0.5-2.5-0.7-2.5c-0.9,0-1.7,0-2.6,0c0.9-0.6,3.5-0.2,4.6-0.2
	c1.4,0,2.7,0.3,3.9,0.3c0-0.1-0.1-0.2-0.1-0.3c1.1,0,0.6,1,1.2,1.7c0.9,1,2.4,0.2,2.8-0.8c0.5-1.4,2.3-0.3,3.3-0.5
	c-0.1-0.1-0.1-0.3-0.2-0.4c0.2,0,0.2,0,0.2,0.2c0.4,0.3,1.2-0.6,1.2,0.2h0.4c0-0.1-0.2-0.2-0.2-0.3c0.8-0.2,0.6,0.2,0.9,0.8
	c0.1-0.1,0.4-0.1,0.5-0.2c0.1-0.1-0.4,0.5-0.4,0.5c0,0.2,1.4,0.4,1.5,0.4c0,0.2,0,0.4,0,0.5c-0.5-0.3-0.8-0.1-0.8,0.5
	c-0.1-0.2-1.5-1.3-1.5-0.3c0.2,0,0.2,0.1,0.4-0.1c0.1,0.3,0.8,0.2,0.8,0.5c1.5,0,2.1-1.4,2.1-2.8c0.2,0,0.2,0.1,0.2,0.3
	c0-0.2,0.1-0.2-0.1-0.4c0.3-0.1,0.1,0,0.1,0.2c0.6,0,1.7,0.6,1.7-0.2C84.6,41.9,81.8,42.5,81.2,42.5z M18.9,17.8
	c1.1-0.5,2.4-0.2,3.2,0.6c-0.9,0.1-1.7,0.3-2.5,0.6c-0.7,0.3-1.4,0.7-2,1.2C17.3,19.2,17.9,18.1,18.9,17.8z M12.8,20.7
	c0.8-0.4,1.7,0,2.1,0.8v0.1c-0.6,0.1-1.3,0.3-1.8,0.6c-0.8,0.4-1.5,0.8-2.2,1.4C10.9,22.2,11.6,21.1,12.8,20.7z M19.6,26.7
	c-4.2,1.8-6.4,1.1-7.3,0.3c0,0,2.3,0.5,6.4-1.3s5.5-3.9,5.5-3.9S23.9,24.9,19.6,26.7L19.6,26.7z M50.5,42.7L50.5,42.7
	C50.6,42.7,50.6,42.8,50.5,42.7L50.5,42.7z"/>
</svg>
